<svg id="svg" version="1.1" xmlns="http://www.w3.org/2000/svg" xmlns:xlink="http://www.w3.org/1999/xlink" width="400" height="145.71428571428572" viewBox="0, 0, 400,145.71428571428572"><g id="svgg"><path id="path0" d="M209.613 21.125 C 209.431 21.434,209.853 21.996,210.367 22.128 C 211.122 22.323,211.260 23.000,210.545 23.000 C 210.282 23.000,209.979 22.912,209.872 22.805 C 209.724 22.657,209.652 22.677,209.571 22.889 C 209.438 23.235,209.167 23.253,209.167 22.917 C 209.167 22.622,209.096 22.615,208.348 22.829 C 207.911 22.954,207.651 22.929,207.207 22.718 C 206.721 22.488,206.543 22.478,206.058 22.653 C 205.610 22.815,205.431 22.817,205.242 22.660 C 205.000 22.459,204.626 22.627,204.296 23.083 C 204.225 23.182,204.069 23.098,203.912 22.875 C 203.582 22.407,202.028 22.345,201.184 22.766 C 200.810 22.953,200.417 23.003,199.867 22.933 C 198.911 22.813,198.919 22.813,197.167 22.934 C 195.906 23.022,195.712 23.080,195.400 23.463 C 195.092 23.842,194.920 23.895,193.953 23.911 C 193.169 23.923,192.765 24.010,192.540 24.214 C 191.963 24.736,190.833 24.362,190.833 23.649 C 190.833 23.455,190.626 23.200,190.334 23.034 C 190.060 22.878,189.835 22.694,189.834 22.625 C 189.832 22.395,188.877 22.497,188.667 22.750 C 188.407 23.063,187.934 23.072,187.683 22.770 C 187.237 22.232,185.355 22.299,185.208 22.859 C 185.114 23.218,184.833 23.275,184.833 22.934 C 184.833 22.634,184.467 22.500,183.647 22.500 C 183.285 22.500,182.812 22.385,182.598 22.244 C 182.246 22.014,182.197 22.014,182.109 22.244 C 182.038 22.429,181.766 22.501,181.130 22.503 C 180.646 22.504,180.148 22.570,180.022 22.649 C 179.884 22.737,179.628 22.707,179.370 22.573 C 179.136 22.452,178.742 22.393,178.495 22.443 C 178.247 22.492,177.603 22.437,177.064 22.320 C 175.708 22.024,173.134 22.006,172.916 22.289 C 172.824 22.409,172.449 22.556,172.083 22.615 C 171.716 22.673,171.216 22.869,170.971 23.049 C 170.649 23.287,170.395 23.345,170.054 23.262 C 169.795 23.198,169.379 23.105,169.130 23.055 C 168.881 23.005,168.591 22.859,168.485 22.732 C 168.379 22.604,168.185 22.500,168.055 22.500 C 167.924 22.500,167.610 22.393,167.357 22.262 C 167.063 22.110,166.810 22.078,166.657 22.174 C 166.489 22.280,166.337 22.220,166.149 21.974 C 165.885 21.626,165.878 21.629,165.566 22.270 C 165.347 22.717,165.123 22.935,164.838 22.975 C 164.611 23.007,164.276 23.138,164.093 23.266 C 163.909 23.395,163.518 23.500,163.223 23.500 C 162.928 23.500,162.640 23.575,162.583 23.667 C 162.425 23.923,161.722 23.865,161.429 23.571 C 161.221 23.364,161.167 23.357,161.167 23.540 C 161.167 23.821,160.282 24.500,159.916 24.500 C 159.551 24.500,158.833 23.750,158.833 23.369 C 158.833 23.130,158.711 23.056,158.319 23.056 C 157.742 23.056,157.506 22.793,157.503 22.144 C 157.499 21.600,157.125 21.480,156.140 21.705 C 155.742 21.795,154.592 21.926,153.583 21.994 C 152.575 22.063,151.525 22.200,151.250 22.300 C 149.913 22.784,148.863 23.000,147.848 23.000 C 147.231 23.000,146.648 23.085,146.542 23.192 C 146.436 23.297,146.077 23.428,145.743 23.483 L 145.136 23.583 145.485 24.026 C 146.516 25.336,144.760 27.087,143.426 26.078 C 143.249 25.943,142.857 25.833,142.557 25.833 C 141.978 25.833,141.667 25.487,141.667 24.844 C 141.667 24.467,140.136 24.312,139.917 24.667 C 139.860 24.758,139.693 24.833,139.545 24.833 C 139.397 24.833,139.139 24.957,138.971 25.109 C 138.789 25.274,138.667 25.308,138.667 25.192 C 138.667 24.871,137.684 24.977,137.173 25.355 C 136.841 25.601,136.565 25.677,136.274 25.604 C 135.899 25.510,135.849 25.554,135.802 26.024 C 135.774 26.313,135.637 26.603,135.500 26.668 C 135.362 26.733,135.013 26.909,134.724 27.060 C 133.965 27.455,133.484 27.401,133.062 26.875 L 132.694 26.417 132.222 26.855 C 131.237 27.768,130.687 27.869,130.066 27.248 C 129.678 26.860,129.619 26.848,129.286 27.081 C 129.088 27.220,128.791 27.333,128.625 27.333 C 128.458 27.333,128.255 27.518,128.167 27.750 C 128.004 28.179,127.761 28.287,127.588 28.007 C 127.532 27.917,127.159 28.024,126.720 28.257 C 126.297 28.483,125.699 28.667,125.392 28.667 C 125.085 28.667,124.833 28.734,124.833 28.816 C 124.833 29.117,124.280 29.162,123.561 28.918 C 122.210 28.459,120.706 28.822,120.096 29.755 C 119.862 30.111,119.767 30.152,119.565 29.985 C 119.364 29.818,119.272 29.847,119.066 30.140 C 118.738 30.609,118.404 30.596,118.079 30.100 C 117.832 29.723,117.781 29.712,117.200 29.914 C 115.741 30.419,114.900 30.668,114.658 30.667 C 114.515 30.667,113.997 30.867,113.507 31.111 C 112.689 31.519,112.579 31.536,112.182 31.314 C 111.242 30.789,111.663 29.585,112.853 29.394 C 113.349 29.315,113.440 29.250,113.281 29.090 C 113.019 28.829,112.186 28.668,112.070 28.856 C 112.020 28.935,111.734 29.000,111.433 29.000 C 111.107 29.000,110.769 29.128,110.600 29.315 C 110.431 29.502,110.183 29.596,109.993 29.546 C 109.792 29.494,109.632 29.564,109.568 29.731 C 109.511 29.879,109.291 30.000,109.079 30.000 C 108.467 30.000,108.167 30.176,108.167 30.537 C 108.167 30.884,108.283 30.887,109.507 30.581 C 109.801 30.507,110.056 30.575,110.337 30.803 L 110.743 31.132 110.361 31.897 C 109.763 33.094,108.842 33.409,108.103 32.670 C 108.010 32.576,107.717 32.500,107.452 32.500 C 107.071 32.500,106.932 32.397,106.782 32.000 C 106.547 31.377,106.371 31.362,106.303 31.958 C 106.183 32.995,104.808 32.535,104.092 31.218 C 104.021 31.087,102.543 31.566,102.389 31.770 C 102.248 31.956,102.110 31.983,101.889 31.868 C 101.721 31.781,101.243 31.660,100.826 31.600 C 100.372 31.534,99.894 31.328,99.633 31.085 C 99.392 30.863,99.001 30.631,98.763 30.572 C 98.525 30.512,98.289 30.396,98.239 30.315 C 98.031 29.980,96.938 30.164,96.469 30.613 C 95.863 31.193,93.660 31.377,92.603 30.935 C 92.249 30.788,91.851 30.667,91.719 30.667 C 91.587 30.667,91.069 30.479,90.568 30.250 C 90.067 30.021,89.585 29.833,89.498 29.833 C 89.411 29.833,89.069 29.571,88.739 29.250 C 88.257 28.783,88.007 28.667,87.478 28.667 C 86.973 28.667,86.729 28.564,86.444 28.233 C 86.045 27.768,85.001 27.873,84.320 28.445 C 84.155 28.584,83.611 28.667,82.857 28.667 C 81.943 28.667,81.633 28.726,81.560 28.917 C 81.453 29.197,80.578 29.261,80.417 29.000 C 80.251 28.731,79.622 28.810,79.083 29.167 C 78.544 29.524,77.916 29.602,77.750 29.333 C 77.597 29.086,76.875 29.132,76.440 29.417 C 76.230 29.554,75.756 29.655,75.387 29.640 C 74.992 29.625,74.552 29.728,74.320 29.890 C 73.519 30.452,71.962 30.161,70.417 29.161 C 70.142 28.983,69.804 28.793,69.667 28.739 C 69.529 28.685,69.218 28.534,68.974 28.404 C 68.731 28.273,68.350 28.167,68.128 28.167 C 67.906 28.167,67.549 27.979,67.333 27.750 C 66.855 27.241,66.373 27.223,65.591 27.684 C 64.781 28.162,64.492 28.080,63.215 27.003 C 62.616 26.498,60.365 26.889,60.120 27.542 C 60.028 27.787,59.791 27.833,58.618 27.833 C 57.364 27.833,57.187 27.873,56.850 28.232 C 56.552 28.549,56.383 28.605,56.029 28.505 C 55.685 28.407,55.456 28.473,55.027 28.793 C 54.571 29.132,54.337 29.192,53.735 29.124 C 53.247 29.069,53.000 29.105,53.000 29.231 C 53.000 29.336,52.642 29.591,52.205 29.799 C 50.976 30.382,47.000 30.123,47.000 29.460 C 47.000 29.152,46.513 29.386,45.873 30.000 C 45.478 30.380,45.015 30.667,44.798 30.668 C 44.204 30.669,43.456 31.222,43.707 31.474 C 43.866 31.633,43.817 31.756,43.475 32.047 C 43.237 32.250,42.997 32.548,42.942 32.708 C 42.860 32.953,42.632 33.000,41.515 33.000 C 40.784 33.000,40.141 33.073,40.086 33.162 C 40.031 33.251,39.612 33.373,39.154 33.434 C 38.201 33.560,37.667 34.071,37.667 34.856 C 37.667 35.350,36.974 35.559,36.575 35.185 C 36.488 35.103,35.961 35.005,35.403 34.968 C 34.590 34.913,34.295 34.811,33.905 34.450 C 33.349 33.934,33.351 33.934,32.436 34.198 C 31.224 34.547,30.069 35.546,29.438 36.791 C 29.141 37.377,28.826 37.724,28.382 37.953 C 27.900 38.203,27.739 38.395,27.702 38.765 C 27.592 39.859,26.894 40.629,26.156 40.469 C 25.983 40.431,25.902 40.614,25.865 41.130 C 25.819 41.764,25.723 41.913,25.000 42.464 C 24.323 42.979,24.184 43.176,24.176 43.633 C 24.166 44.199,24.042 44.227,22.827 43.938 C 22.674 43.901,21.172 45.572,21.169 45.783 C 21.168 45.893,21.422 46.178,21.734 46.416 C 22.390 46.916,22.347 47.457,21.552 48.716 C 21.271 49.162,21.165 49.517,21.225 49.813 C 21.324 50.296,19.947 53.286,19.353 53.881 C 19.250 53.983,19.165 54.183,19.162 54.325 C 19.159 54.467,18.934 54.878,18.662 55.238 C 18.390 55.598,18.167 55.992,18.167 56.113 C 18.167 56.234,18.100 56.333,18.019 56.333 C 17.937 56.333,17.823 56.587,17.765 56.896 C 17.707 57.206,17.473 57.660,17.246 57.905 C 17.019 58.150,16.833 58.471,16.833 58.617 C 16.833 58.764,16.608 59.361,16.333 59.943 C 16.058 60.525,15.833 61.146,15.833 61.323 C 15.833 61.860,15.532 62.480,15.033 62.968 C 14.417 63.570,14.109 64.967,14.367 65.984 C 14.498 66.498,14.494 66.862,14.354 67.329 C 14.249 67.682,14.088 68.553,13.998 69.267 C 13.907 69.980,13.768 70.606,13.688 70.657 C 13.445 70.812,13.160 75.712,13.353 76.411 C 13.453 76.774,13.479 77.814,13.415 78.969 C 13.357 80.040,13.282 81.592,13.249 82.417 C 13.127 85.474,12.863 88.450,12.612 89.583 C 12.122 91.803,11.961 92.417,11.827 92.585 C 11.753 92.678,11.639 93.240,11.574 93.835 C 11.510 94.430,11.386 95.006,11.300 95.115 C 10.958 95.546,11.319 98.990,11.759 99.500 C 12.358 100.196,12.476 101.109,12.061 101.841 C 11.844 102.222,11.666 102.620,11.666 102.725 C 11.665 102.831,11.563 103.111,11.440 103.347 C 10.980 104.230,10.310 106.966,10.522 107.097 C 10.746 107.235,10.693 107.783,10.431 108.045 C 10.200 108.276,10.120 108.981,10.151 110.514 C 10.167 111.272,10.174 111.282,11.125 111.764 L 12.083 112.250 12.071 113.074 C 12.064 113.549,11.975 113.925,11.861 113.963 C 11.753 113.999,11.706 114.095,11.756 114.176 C 11.904 114.415,11.366 115.301,11.002 115.416 C 10.455 115.590,10.503 116.240,11.097 116.707 C 11.548 117.062,11.600 117.437,11.262 117.883 C 10.964 118.276,11.119 118.833,11.527 118.833 C 11.862 118.833,13.500 120.351,13.500 120.660 C 13.500 120.757,13.340 120.967,13.144 121.127 C 12.949 121.286,12.602 121.571,12.374 121.759 L 11.959 122.101 12.386 122.381 C 12.978 122.769,15.410 123.025,16.620 122.826 C 17.150 122.740,17.865 122.668,18.208 122.668 C 18.552 122.667,18.833 122.590,18.833 122.496 C 18.833 122.094,19.704 121.977,20.078 122.328 C 20.518 122.742,20.793 122.754,21.208 122.380 C 21.408 122.198,21.812 122.089,22.304 122.083 C 22.733 122.078,23.160 122.026,23.253 121.967 C 23.500 121.813,26.234 121.167,26.638 121.167 C 26.826 121.167,27.027 121.092,27.083 121.000 C 27.529 120.278,30.137 121.232,30.161 122.125 C 30.164 122.240,30.223 122.334,30.292 122.334 C 30.360 122.335,30.592 122.592,30.805 122.906 C 31.019 123.220,31.394 123.559,31.639 123.660 C 32.644 124.075,33.500 124.775,33.500 125.182 C 33.500 125.374,33.701 125.490,34.167 125.564 C 34.533 125.623,34.833 125.736,34.833 125.815 C 34.833 125.895,35.546 125.991,36.416 126.029 C 37.337 126.070,38.083 126.183,38.199 126.299 C 38.310 126.410,38.532 126.500,38.694 126.500 C 38.856 126.500,39.344 126.621,39.779 126.768 C 40.378 126.972,40.641 126.992,40.866 126.852 C 41.255 126.608,41.756 126.617,42.182 126.875 C 42.487 127.060,42.579 127.021,42.984 126.542 C 43.481 125.953,43.790 125.859,43.940 126.250 C 44.042 126.516,44.919 126.600,45.068 126.358 C 45.117 126.279,45.773 126.164,46.527 126.101 C 47.281 126.038,48.007 125.897,48.139 125.787 C 48.282 125.668,49.118 125.562,50.190 125.525 C 51.571 125.478,52.000 125.410,52.000 125.237 C 52.000 124.967,52.500 124.682,52.792 124.786 C 52.906 124.827,53.000 124.984,53.000 125.134 C 53.000 125.345,53.060 125.322,53.261 125.034 C 53.553 124.618,53.833 124.685,53.833 125.172 C 53.833 125.654,54.635 125.976,56.153 126.102 C 56.900 126.165,57.550 126.279,57.598 126.358 C 57.647 126.436,58.202 126.500,58.833 126.500 C 59.464 126.500,60.027 126.575,60.083 126.667 C 60.140 126.758,60.313 126.834,60.468 126.836 C 60.623 126.837,61.041 127.174,61.396 127.586 C 62.119 128.423,62.331 128.507,62.339 127.958 C 62.349 127.255,63.254 126.500,64.087 126.500 C 64.369 126.500,64.688 126.412,64.796 126.304 C 64.946 126.154,65.071 126.179,65.329 126.413 C 65.785 126.825,65.754 127.364,65.250 127.802 C 64.563 128.400,64.742 128.745,65.473 128.233 C 65.683 128.087,65.995 128.003,66.168 128.049 C 66.419 128.114,66.492 128.027,66.532 127.607 C 66.591 127.009,67.130 126.804,67.493 127.242 C 67.742 127.542,68.856 127.589,69.357 127.321 C 69.948 127.005,71.309 126.715,71.533 126.857 C 72.145 127.245,72.628 126.785,72.083 126.333 C 71.021 125.451,72.174 124.667,74.532 124.667 C 76.052 124.667,76.504 124.613,76.669 124.414 C 76.855 124.189,76.944 124.199,77.449 124.497 C 77.763 124.682,78.222 124.833,78.470 124.833 C 78.719 124.833,79.189 124.977,79.517 125.152 C 80.180 125.508,84.220 125.626,84.618 125.301 C 84.729 125.211,85.029 125.180,85.285 125.232 C 85.969 125.372,86.428 124.941,86.353 124.228 C 86.332 124.027,84.854 123.591,84.703 123.741 C 84.532 123.912,84.167 123.457,84.167 123.073 C 84.167 121.906,87.986 121.973,88.220 123.144 C 88.393 124.005,88.120 124.744,87.609 124.804 C 87.355 124.833,87.175 124.942,87.209 125.045 C 87.382 125.562,91.567 125.722,91.469 125.208 C 91.434 125.025,91.229 124.896,90.915 124.860 C 90.641 124.829,90.342 124.744,90.250 124.671 C 90.158 124.598,89.840 124.486,89.542 124.423 C 88.183 124.132,88.983 122.333,90.471 122.333 C 91.174 122.333,91.337 122.280,91.351 122.042 C 91.361 121.881,91.380 121.337,91.393 120.833 L 91.417 119.917 92.000 119.863 C 92.321 119.834,92.655 119.740,92.742 119.655 C 92.952 119.449,93.942 119.457,94.335 119.667 C 94.551 119.783,94.780 119.774,95.075 119.640 C 95.402 119.491,95.591 119.491,95.876 119.642 C 96.082 119.750,96.775 119.871,97.417 119.910 C 98.624 119.986,98.924 120.029,99.721 120.247 C 100.014 120.327,100.262 120.305,100.379 120.188 C 100.482 120.085,100.846 120.000,101.188 120.000 C 101.555 120.000,101.928 119.882,102.098 119.711 C 102.848 118.962,105.038 118.652,105.988 119.160 C 106.304 119.329,106.538 119.315,107.287 119.079 C 108.229 118.783,110.023 118.836,110.136 119.164 C 110.166 119.250,110.383 119.232,110.636 119.121 C 110.882 119.014,112.208 118.876,113.583 118.815 C 116.543 118.685,119.606 118.378,119.987 118.174 C 120.147 118.088,120.378 118.095,120.549 118.191 C 120.718 118.286,121.551 118.313,122.545 118.257 C 125.087 118.114,125.279 118.113,127.049 118.254 C 128.510 118.370,128.716 118.427,129.008 118.797 C 129.949 119.995,128.826 120.697,125.989 120.685 C 124.869 120.680,123.879 120.722,123.790 120.777 C 123.700 120.832,122.455 120.903,121.022 120.935 C 117.026 121.023,116.071 121.286,117.832 121.813 C 118.969 122.154,118.819 123.196,117.600 123.424 C 116.485 123.634,116.119 123.295,116.249 122.172 C 116.388 120.981,116.241 120.895,114.500 121.140 C 113.904 121.224,113.180 121.256,112.891 121.213 C 112.465 121.149,112.370 121.189,112.391 121.424 C 112.429 121.856,111.994 121.929,111.884 121.508 C 111.817 121.253,111.711 121.182,111.520 121.264 C 111.371 121.327,110.726 121.425,110.085 121.481 C 109.182 121.560,108.908 121.646,108.867 121.861 C 108.792 122.254,109.389 122.395,110.077 122.146 C 110.935 121.836,111.400 122.289,111.284 123.323 C 111.194 124.123,110.852 124.500,110.218 124.500 C 109.412 124.500,109.876 124.778,110.708 124.793 C 111.190 124.802,111.979 124.860,112.463 124.921 C 113.108 125.003,113.527 124.959,114.039 124.754 C 114.634 124.516,114.883 124.503,115.757 124.668 C 116.526 124.813,116.954 124.814,117.487 124.670 C 117.876 124.565,118.402 124.525,118.656 124.581 C 119.031 124.663,119.172 124.600,119.403 124.247 C 119.634 123.895,119.735 123.849,119.928 124.009 C 120.203 124.237,120.251 124.833,119.994 124.833 C 119.875 124.833,119.875 124.933,119.994 125.156 C 120.251 125.636,120.214 125.774,119.672 126.328 L 119.178 126.833 117.131 126.838 C 115.595 126.842,115.160 126.888,115.390 127.022 C 115.561 127.121,116.003 127.156,116.390 127.099 C 116.771 127.044,118.565 126.987,120.376 126.974 C 122.911 126.955,123.711 126.898,123.854 126.725 C 123.982 126.571,124.454 126.500,125.344 126.500 C 126.061 126.500,126.693 126.425,126.750 126.333 C 126.876 126.129,127.667 126.110,127.667 126.311 C 127.667 126.447,128.782 126.699,129.333 126.687 C 130.176 126.670,131.498 126.435,131.982 126.217 C 132.596 125.940,134.390 126.035,134.788 126.365 C 134.907 126.464,135.230 126.489,135.540 126.423 C 135.839 126.360,136.308 126.290,136.583 126.268 C 136.858 126.246,137.396 126.171,137.779 126.102 C 138.288 126.009,138.577 126.042,138.862 126.226 C 139.300 126.510,143.425 126.589,143.594 126.317 C 143.722 126.108,144.790 126.128,144.922 126.341 C 144.996 126.461,145.102 126.456,145.260 126.325 C 145.408 126.202,145.806 126.171,146.370 126.238 C 148.547 126.497,149.190 126.522,149.390 126.356 C 149.697 126.101,150.695 125.974,152.932 125.904 C 154.024 125.870,156.154 125.765,157.667 125.671 C 159.179 125.577,161.354 125.442,162.500 125.373 C 164.236 125.267,164.705 125.179,165.314 124.844 C 166.082 124.423,166.125 124.424,168.131 124.943 C 168.375 125.006,168.630 124.934,168.840 124.744 C 169.183 124.434,171.628 124.619,172.369 125.011 C 173.301 125.504,174.029 125.491,174.466 124.972 C 174.853 124.512,174.949 124.479,175.615 124.579 C 176.190 124.666,176.459 124.616,176.899 124.344 C 177.571 123.929,178.282 123.902,178.696 124.276 C 179.034 124.583,180.554 124.351,181.245 123.887 C 181.806 123.511,182.692 123.610,183.077 124.092 C 183.411 124.510,183.457 124.518,185.917 124.555 C 188.259 124.591,188.475 124.622,189.333 125.045 C 189.838 125.293,190.411 125.497,190.607 125.498 C 191.039 125.500,191.167 125.791,191.167 126.775 C 191.167 127.792,190.938 128.167,190.319 128.167 C 190.043 128.167,189.614 128.270,189.367 128.397 C 189.119 128.523,188.495 128.629,187.980 128.633 C 186.957 128.639,185.779 129.082,185.262 129.654 C 184.724 130.248,182.667 129.924,182.667 129.246 C 182.667 129.014,181.714 128.669,181.069 128.668 C 180.878 128.667,180.521 128.892,180.276 129.167 C 179.798 129.703,179.216 129.823,179.060 129.417 C 179.008 129.279,178.788 129.167,178.572 129.167 C 178.356 129.167,177.791 129.014,177.318 128.827 L 176.457 128.488 176.219 128.827 C 176.088 129.014,175.835 129.167,175.657 129.167 C 175.479 129.167,175.333 129.230,175.333 129.307 C 175.333 129.384,175.146 129.532,174.917 129.636 C 174.480 129.836,173.667 129.613,173.667 129.295 C 173.667 129.211,173.549 129.261,173.405 129.405 C 173.120 129.690,173.086 129.693,170.456 129.701 C 169.469 129.704,168.621 129.772,168.571 129.853 C 168.521 129.934,168.377 130.000,168.251 130.000 C 168.125 130.000,167.811 130.086,167.553 130.192 C 167.294 130.298,166.417 130.409,165.603 130.440 C 164.789 130.471,164.018 130.583,163.889 130.689 C 163.711 130.837,163.499 130.832,162.996 130.665 C 162.422 130.476,162.255 130.485,161.696 130.737 C 161.278 130.925,160.858 130.991,160.486 130.926 C 159.984 130.838,159.453 130.903,157.623 131.278 C 157.369 131.329,156.939 131.280,156.667 131.167 C 155.792 130.805,154.763 131.073,154.575 131.713 C 154.363 132.431,153.875 132.509,153.392 131.903 C 152.932 131.326,151.710 131.244,150.955 131.740 C 150.511 132.031,150.456 132.032,149.557 131.749 C 148.122 131.298,145.596 131.808,146.494 132.368 C 147.098 132.746,146.977 134.122,146.315 134.401 L 145.796 134.619 146.273 135.067 C 146.791 135.554,148.595 135.638,149.038 135.196 C 149.339 134.894,149.788 134.963,150.061 135.351 C 150.205 135.557,150.389 135.652,150.505 135.580 C 150.615 135.513,151.153 135.467,151.702 135.480 C 152.652 135.501,153.382 135.163,154.167 134.338 C 154.638 133.842,155.038 133.824,155.793 134.266 C 156.431 134.641,156.637 134.688,157.009 134.548 C 157.288 134.442,157.560 134.437,157.731 134.533 C 157.883 134.618,159.374 134.688,161.045 134.689 C 165.667 134.693,165.167 134.776,165.167 134.003 C 165.167 133.324,165.216 133.281,166.167 133.139 C 166.606 133.073,167.146 133.340,167.253 133.675 C 167.370 134.044,167.984 134.249,168.548 134.107 C 168.758 134.054,169.141 134.121,169.400 134.256 C 170.046 134.590,170.239 134.567,171.002 134.062 C 171.544 133.704,171.710 133.662,171.914 133.831 C 172.118 134.000,172.183 133.981,172.278 133.727 C 172.496 133.136,172.981 133.005,173.399 133.423 C 173.715 133.739,175.291 133.837,175.468 133.552 C 175.677 133.213,176.494 132.995,177.156 133.101 C 177.504 133.157,177.931 133.126,178.105 133.033 C 178.332 132.912,178.583 132.932,178.991 133.103 C 179.392 133.272,179.848 133.311,180.527 133.234 L 181.493 133.124 181.153 132.648 C 180.243 131.370,181.851 130.939,183.580 131.998 L 184.667 132.663 184.667 132.191 C 184.667 131.704,185.867 131.104,186.159 131.446 C 186.223 131.521,186.433 131.792,186.625 132.047 C 186.825 132.314,187.019 132.438,187.080 132.339 C 187.138 132.244,187.576 132.165,188.052 132.163 L 188.917 132.159 189.281 131.329 C 189.792 130.167,191.132 130.291,192.220 131.601 C 192.836 132.342,193.362 132.324,194.358 131.531 C 194.509 131.411,195.048 131.270,195.556 131.217 C 196.371 131.133,196.508 131.064,196.717 130.632 C 196.935 130.182,196.962 130.170,197.045 130.488 C 197.118 130.765,197.268 130.833,197.808 130.833 C 198.178 130.833,198.531 130.915,198.592 131.015 C 198.656 131.118,198.857 131.146,199.060 131.079 C 199.256 131.015,200.204 130.895,201.167 130.812 C 202.129 130.730,203.217 130.622,203.583 130.573 C 203.950 130.524,205.262 130.385,206.500 130.264 C 208.887 130.030,209.333 129.924,209.333 129.588 C 209.333 129.472,209.629 129.182,209.990 128.943 L 210.646 128.509 211.615 128.952 C 212.588 129.396,215.264 129.540,215.750 129.174 C 216.130 128.888,216.946 128.728,217.397 128.851 C 217.716 128.939,218.109 128.896,218.564 128.725 C 218.941 128.583,219.870 128.447,220.628 128.423 C 221.646 128.390,222.089 128.305,222.320 128.095 C 222.638 127.807,223.728 127.861,223.921 128.174 C 223.968 128.249,224.211 128.204,224.461 128.073 C 224.712 127.942,225.121 127.835,225.371 127.834 C 225.621 127.834,226.057 127.693,226.340 127.521 C 226.846 127.213,227.870 127.314,228.267 127.711 C 228.527 127.971,228.775 127.810,228.977 127.250 C 229.226 126.563,229.551 126.515,230.226 127.068 C 230.677 127.437,230.740 127.445,231.461 127.228 C 231.878 127.103,232.438 127.000,232.704 127.000 C 232.971 127.000,233.337 126.921,233.519 126.823 C 235.066 125.995,237.936 127.037,236.728 127.988 L 236.288 128.333 236.853 128.353 C 237.533 128.377,237.836 128.347,238.167 128.225 C 238.304 128.174,238.792 128.105,239.250 128.072 C 241.242 127.926,242.169 127.797,242.258 127.654 C 242.310 127.569,242.500 127.500,242.681 127.500 C 242.877 127.500,243.072 127.333,243.167 127.083 C 243.355 126.588,243.665 126.539,243.782 126.987 C 243.904 127.453,244.940 127.374,245.459 126.858 C 245.829 126.489,245.871 126.482,246.161 126.745 C 246.444 127.001,246.512 127.003,246.977 126.762 C 247.311 126.589,247.928 126.500,248.794 126.500 C 249.828 126.500,250.276 126.417,250.916 126.108 C 251.588 125.784,251.821 125.745,252.269 125.883 C 252.627 125.993,253.092 125.993,253.645 125.884 C 254.105 125.793,254.579 125.781,254.699 125.857 C 255.103 126.113,257.739 126.021,258.322 125.731 C 258.691 125.547,259.067 125.495,259.517 125.567 C 260.400 125.708,261.000 125.541,261.000 125.154 C 261.000 124.520,261.955 124.404,262.745 124.943 C 263.167 125.230,263.469 125.224,264.061 124.916 C 264.605 124.632,265.333 124.585,265.333 124.833 C 265.333 125.055,266.268 125.047,266.688 124.822 C 266.932 124.692,267.087 124.698,267.264 124.845 C 267.464 125.011,267.489 124.998,267.403 124.773 C 267.193 124.226,267.474 123.667,267.962 123.661 C 268.212 123.658,268.562 123.546,268.740 123.411 C 268.973 123.235,269.516 123.167,270.676 123.167 C 272.021 123.167,272.357 123.113,272.700 122.843 C 273.040 122.575,273.277 122.536,274.055 122.616 C 275.075 122.721,276.646 122.343,277.010 121.904 C 277.119 121.774,277.371 121.667,277.572 121.667 C 278.033 121.667,278.455 121.343,278.528 120.935 C 278.558 120.761,278.696 120.566,278.833 120.502 C 278.971 120.438,279.249 120.300,279.451 120.196 C 279.685 120.075,279.854 120.066,279.919 120.170 C 280.067 120.410,281.020 120.358,281.500 120.083 C 281.729 119.952,282.254 119.840,282.667 119.834 C 283.079 119.828,283.562 119.713,283.740 119.578 C 283.918 119.443,284.307 119.333,284.604 119.333 C 285.037 119.333,285.154 119.259,285.197 118.958 C 285.226 118.752,285.362 118.583,285.500 118.583 C 285.637 118.583,285.774 118.752,285.803 118.958 C 285.875 119.460,286.157 119.431,286.615 118.875 C 286.933 118.489,287.018 118.456,287.157 118.667 C 287.364 118.981,289.138 118.915,289.803 118.568 C 290.049 118.440,290.492 118.335,290.787 118.334 C 291.214 118.334,291.377 118.231,291.581 117.838 C 291.950 117.124,292.274 117.013,293.979 117.016 C 295.140 117.018,295.568 116.956,295.765 116.759 C 295.911 116.613,296.309 116.500,296.679 116.500 C 297.039 116.500,297.333 116.423,297.333 116.328 C 297.333 116.233,297.502 116.088,297.708 116.005 C 298.074 115.858,297.443 115.760,296.255 115.779 C 296.075 115.782,295.826 115.683,295.702 115.559 C 295.402 115.259,295.078 115.274,294.561 115.613 C 294.208 115.845,294.076 115.857,293.800 115.684 C 293.513 115.505,293.430 115.525,293.223 115.821 C 292.961 116.196,292.401 116.286,292.296 115.971 C 292.218 115.738,290.954 115.757,290.504 115.998 C 290.285 116.115,290.174 116.106,290.128 115.967 C 290.087 115.844,289.752 115.785,289.233 115.809 C 288.533 115.841,288.342 115.781,288.006 115.423 L 287.609 115.000 288.000 114.583 C 288.291 114.274,288.566 114.165,289.071 114.161 C 289.444 114.158,289.896 114.046,290.074 113.911 C 290.309 113.733,290.860 113.667,292.095 113.667 C 293.138 113.667,294.009 113.579,294.355 113.440 C 294.664 113.316,295.472 113.207,296.150 113.198 C 297.568 113.180,298.500 112.568,298.500 111.654 C 298.500 111.409,298.619 111.108,298.765 110.988 C 299.002 110.791,299.003 110.748,298.775 110.581 C 297.958 109.983,298.409 108.000,299.362 108.000 C 299.561 108.000,299.861 107.876,300.028 107.725 C 300.208 107.562,300.554 107.466,300.874 107.490 C 301.173 107.513,301.604 107.529,301.833 107.525 C 304.319 107.486,305.752 107.557,306.559 107.760 C 306.973 107.863,307.116 107.790,307.665 107.189 L 308.295 106.500 312.319 106.500 C 315.520 106.500,316.467 106.551,316.942 106.750 C 317.321 106.908,318.081 107.000,319.011 107.000 C 319.819 107.000,320.527 107.075,320.583 107.167 C 320.784 107.492,321.167 107.337,321.167 106.930 C 321.167 106.167,321.328 106.000,322.064 106.000 C 322.581 106.000,322.823 105.910,323.005 105.651 C 323.666 104.709,323.625 104.737,323.988 104.958 C 324.728 105.410,326.000 105.175,326.000 104.586 C 326.000 103.853,326.923 103.711,328.208 104.247 C 328.385 104.321,328.500 104.295,328.500 104.182 C 328.500 103.925,329.503 103.335,329.940 103.334 C 330.521 103.333,331.119 103.906,330.862 104.216 C 330.711 104.398,330.703 104.503,330.835 104.584 C 331.202 104.811,331.772 104.490,332.896 103.422 C 333.526 102.823,334.174 102.333,334.336 102.333 C 334.498 102.333,334.674 102.221,334.727 102.083 C 334.885 101.671,335.589 101.780,335.803 102.250 C 335.986 102.652,336.500 102.838,336.500 102.503 C 336.500 102.413,336.706 102.288,336.958 102.225 C 337.210 102.163,337.747 101.936,338.150 101.722 C 338.945 101.300,339.656 101.222,339.957 101.524 C 340.101 101.667,340.271 101.664,340.639 101.511 C 341.032 101.349,341.200 101.351,341.478 101.525 C 341.752 101.696,341.868 101.699,342.029 101.537 C 342.274 101.293,343.770 101.263,343.917 101.500 C 344.057 101.727,346.500 101.719,346.500 101.491 C 346.500 101.166,347.710 100.808,348.817 100.806 C 349.469 100.805,350.065 100.710,350.281 100.572 C 350.607 100.364,350.751 100.392,351.668 100.847 C 353.013 101.515,353.390 101.427,354.245 100.246 C 355.067 99.112,355.655 99.023,356.148 99.958 C 356.425 100.485,356.790 100.426,357.427 99.750 L 357.978 99.167 356.150 99.167 C 354.411 99.167,354.315 99.185,354.172 99.542 L 354.021 99.917 354.011 99.542 C 354.005 99.335,353.906 99.160,353.792 99.153 C 353.677 99.145,352.803 99.141,351.850 99.144 C 350.660 99.148,349.971 99.074,349.653 98.910 C 348.591 98.360,347.508 98.770,347.503 99.724 C 347.501 99.984,347.361 100.374,347.191 100.591 L 346.881 100.984 346.652 100.557 C 346.439 100.159,346.457 100.103,346.912 99.740 L 347.400 99.351 346.950 99.179 C 346.703 99.085,346.500 98.940,346.500 98.857 C 346.500 98.774,346.219 98.806,345.875 98.929 C 344.784 99.318,344.225 99.241,344.027 98.673 C 343.825 98.092,342.480 98.090,341.651 98.669 C 340.320 99.600,338.959 99.225,339.033 97.948 L 339.083 97.083 340.643 97.035 C 341.737 97.001,342.276 96.914,342.447 96.744 C 342.745 96.445,343.314 96.425,343.425 96.708 C 343.555 97.039,345.311 97.051,346.043 96.726 C 346.528 96.511,346.759 96.489,347.064 96.628 C 347.336 96.751,347.513 96.754,347.631 96.636 C 347.832 96.435,349.783 96.617,349.927 96.850 C 350.095 97.121,353.930 97.035,354.163 96.754 C 354.435 96.427,356.629 96.505,356.847 96.850 C 356.960 97.028,356.996 96.999,356.997 96.729 C 357.003 95.995,357.723 95.873,357.858 96.583 C 357.943 97.034,362.333 97.203,362.333 96.755 C 362.333 96.460,362.142 96.424,361.893 96.674 C 361.626 96.941,361.276 96.416,361.398 95.930 C 361.531 95.402,362.149 95.189,362.431 95.574 C 362.622 95.836,362.644 95.833,362.738 95.538 C 362.793 95.363,363.025 95.120,363.253 94.999 C 364.102 94.544,363.760 94.333,362.177 94.333 C 361.357 94.333,360.642 94.262,360.588 94.174 C 360.534 94.087,360.040 93.965,359.491 93.902 C 358.942 93.840,358.452 93.724,358.403 93.645 C 358.354 93.565,358.166 93.500,357.985 93.500 C 357.518 93.500,357.405 93.048,357.771 92.643 C 358.042 92.344,358.202 92.313,359.000 92.410 C 361.370 92.698,361.512 92.699,362.072 92.433 C 362.787 92.094,364.061 92.085,364.393 92.417 C 364.769 92.793,364.886 92.731,365.260 91.958 L 365.602 91.250 367.343 91.225 C 368.300 91.211,369.170 91.193,369.276 91.183 C 369.761 91.141,369.280 90.500,368.764 90.500 C 368.472 90.500,368.157 90.424,368.064 90.330 C 367.706 89.973,366.846 89.840,366.690 90.119 C 366.460 90.530,366.196 90.227,366.074 89.413 C 365.992 88.868,365.886 88.667,365.681 88.667 C 365.526 88.667,365.325 88.592,365.233 88.500 C 365.040 88.306,362.996 88.015,361.083 87.908 C 359.623 87.827,359.333 87.645,359.333 86.807 C 359.333 86.033,360.450 85.774,362.083 86.169 C 362.450 86.258,363.688 86.373,364.833 86.425 C 366.177 86.486,367.140 86.615,367.545 86.787 C 368.073 87.011,368.237 87.019,368.578 86.836 C 368.886 86.672,369.096 86.663,369.450 86.802 C 370.532 87.226,375.856 87.650,377.028 87.406 C 377.349 87.339,377.519 87.397,377.641 87.615 C 377.781 87.867,378.097 87.930,379.564 88.000 L 381.319 88.083 381.368 87.590 C 381.404 87.222,381.523 87.070,381.833 86.994 L 382.250 86.892 381.876 86.769 C 381.671 86.701,381.438 86.685,381.359 86.734 C 381.280 86.783,381.073 86.715,380.900 86.583 C 380.539 86.310,379.500 86.248,379.500 86.500 C 379.500 86.794,378.663 86.684,378.549 86.375 C 378.399 85.969,378.165 85.839,377.579 85.836 C 377.301 85.834,376.925 85.729,376.742 85.601 C 376.444 85.392,375.731 85.269,374.000 85.130 C 373.476 85.088,373.417 85.126,373.417 85.500 C 373.417 86.122,373.195 86.398,372.896 86.149 C 372.763 86.039,372.666 85.829,372.680 85.683 C 372.755 84.897,372.692 84.833,371.843 84.833 C 371.390 84.833,370.980 84.769,370.931 84.690 C 370.882 84.611,370.157 84.508,369.318 84.460 C 368.480 84.412,367.744 84.292,367.682 84.192 C 367.621 84.093,367.123 83.961,366.577 83.900 C 366.030 83.838,365.508 83.733,365.417 83.666 C 365.325 83.599,364.465 83.492,363.505 83.429 C 362.545 83.365,361.682 83.252,361.588 83.178 C 361.412 83.040,360.331 82.856,359.000 82.738 C 358.587 82.701,357.852 82.625,357.365 82.569 C 356.661 82.487,356.415 82.525,356.163 82.753 C 355.775 83.105,355.380 82.978,355.174 82.435 C 355.048 82.104,354.837 81.993,354.051 81.843 C 353.519 81.742,352.805 81.584,352.465 81.492 C 352.124 81.399,351.666 81.369,351.445 81.424 C 350.517 81.657,350.043 80.228,350.849 79.629 C 351.350 79.256,355.444 79.171,356.692 79.507 C 357.471 79.717,357.851 79.519,357.709 78.977 C 357.657 78.779,357.716 78.573,357.846 78.492 C 357.971 78.415,358.025 78.302,357.965 78.242 C 357.904 78.182,357.682 78.298,357.469 78.499 C 356.565 79.357,354.333 79.424,354.333 78.594 C 354.333 78.243,355.466 77.654,356.064 77.694 C 356.357 77.714,356.681 77.678,356.785 77.613 C 356.888 77.549,357.092 77.615,357.237 77.760 C 357.477 78.001,357.500 77.994,357.500 77.688 C 357.500 77.503,357.647 77.249,357.826 77.124 C 358.150 76.897,358.150 76.893,357.826 76.616 C 357.627 76.445,357.500 76.125,357.499 75.793 C 357.498 75.363,357.393 75.190,356.991 74.962 C 356.372 74.609,356.277 72.479,356.875 72.365 C 357.092 72.323,357.167 72.419,357.167 72.738 C 357.167 73.138,357.219 73.167,357.958 73.168 C 358.463 73.168,358.929 73.287,359.245 73.495 C 359.536 73.687,359.889 73.784,360.102 73.730 C 360.301 73.681,360.514 73.721,360.575 73.820 C 360.739 74.085,361.283 74.039,361.394 73.750 C 361.514 73.436,362.064 73.425,362.318 73.732 C 362.672 74.158,363.136 74.152,363.572 73.716 C 363.926 73.362,364.097 73.312,364.703 73.387 C 365.095 73.436,366.167 73.557,367.083 73.656 C 368.000 73.756,368.967 73.912,369.233 74.002 C 369.499 74.093,370.324 74.169,371.067 74.172 C 371.989 74.176,372.519 74.255,372.740 74.422 C 372.966 74.593,373.495 74.667,374.499 74.667 C 375.374 74.667,376.010 74.743,376.129 74.862 C 376.278 75.012,376.425 75.012,376.753 74.862 C 377.526 74.510,380.161 74.838,380.742 75.358 C 380.829 75.436,381.354 75.495,381.908 75.489 C 382.705 75.481,382.835 75.446,382.529 75.323 C 382.205 75.194,382.150 75.067,382.194 74.556 C 382.227 74.176,382.168 73.917,382.040 73.874 C 381.800 73.794,381.764 73.396,381.985 73.259 C 382.251 73.095,382.687 73.365,382.850 73.795 C 382.998 74.184,383.028 74.193,383.309 73.939 C 383.474 73.789,383.810 73.667,384.055 73.667 C 384.594 73.667,384.599 73.621,384.135 72.993 C 383.872 72.637,383.629 72.499,383.260 72.495 C 382.980 72.492,382.604 72.379,382.426 72.245 C 382.249 72.110,381.885 72.000,381.619 72.000 C 381.353 72.000,380.921 71.848,380.659 71.661 C 380.397 71.475,379.838 71.219,379.417 71.092 C 378.474 70.808,378.167 70.565,378.167 70.103 C 378.167 69.567,378.782 69.236,379.154 69.572 C 379.624 69.997,380.416 69.933,380.045 69.500 C 379.871 69.297,379.553 69.167,379.233 69.167 C 378.944 69.167,378.614 69.054,378.500 68.917 C 378.386 68.779,378.203 68.667,378.094 68.667 C 377.985 68.667,377.594 68.521,377.224 68.342 C 376.844 68.158,376.393 68.059,376.185 68.114 C 375.960 68.172,375.741 68.112,375.617 67.957 C 375.399 67.684,374.992 67.568,373.333 67.312 C 372.738 67.220,372.100 67.079,371.917 66.998 C 371.733 66.918,371.114 66.803,370.541 66.743 C 369.968 66.683,369.458 66.566,369.407 66.484 C 369.355 66.401,369.053 66.333,368.735 66.333 C 367.742 66.333,366.330 65.520,366.843 65.243 C 367.151 65.077,367.189 65.004,367.000 64.941 C 366.489 64.771,363.991 64.391,360.833 64.003 C 359.962 63.896,359.120 63.739,358.961 63.654 C 358.801 63.569,358.483 63.500,358.252 63.500 C 357.463 63.500,356.875 62.525,357.367 62.033 C 357.609 61.791,358.167 61.768,358.167 62.000 C 358.167 62.099,358.802 62.167,359.740 62.167 C 360.609 62.167,361.360 62.092,361.417 62.000 C 361.562 61.765,364.055 61.788,364.293 62.026 C 364.439 62.172,364.550 62.166,364.748 62.001 C 364.962 61.824,365.140 61.823,365.714 61.995 C 366.100 62.112,367.328 62.229,368.442 62.256 C 369.557 62.283,370.622 62.387,370.810 62.488 C 371.093 62.639,371.184 62.613,371.332 62.335 C 371.480 62.059,371.459 61.995,371.214 61.974 C 371.051 61.960,370.729 61.922,370.500 61.891 C 370.271 61.860,369.596 61.771,369.000 61.694 C 368.404 61.616,367.673 61.423,367.376 61.265 C 367.072 61.103,366.691 61.023,366.505 61.082 C 365.538 61.389,363.687 60.161,364.194 59.550 C 364.432 59.264,367.679 59.245,367.962 59.528 C 368.069 59.636,368.526 59.742,368.977 59.765 C 369.429 59.788,370.027 59.925,370.307 60.070 C 370.588 60.215,371.191 60.333,371.648 60.333 C 372.104 60.333,372.675 60.408,372.916 60.500 C 373.157 60.591,373.987 60.715,374.760 60.774 C 375.621 60.841,376.239 60.970,376.354 61.108 C 376.457 61.232,376.850 61.336,377.229 61.339 C 377.607 61.342,378.062 61.454,378.240 61.589 C 378.443 61.742,378.945 61.833,379.582 61.833 C 380.142 61.833,380.671 61.904,380.758 61.991 C 381.079 62.312,382.259 62.384,382.543 62.100 C 382.930 61.713,383.428 61.773,383.804 62.250 C 384.185 62.735,385.159 62.828,385.503 62.413 C 385.619 62.273,385.685 62.138,385.649 62.114 C 385.480 61.999,383.950 61.667,383.587 61.667 C 383.362 61.667,382.848 61.554,382.444 61.417 C 382.040 61.280,381.268 61.095,380.729 61.006 C 380.191 60.917,379.150 60.725,378.417 60.581 C 375.741 60.053,375.242 59.967,374.833 59.969 C 374.604 59.970,374.342 59.913,374.250 59.843 C 373.886 59.563,372.863 59.320,371.671 59.228 C 370.981 59.175,370.369 59.056,370.311 58.963 C 370.253 58.870,369.766 58.746,369.228 58.688 C 368.208 58.579,367.672 57.846,368.405 57.565 C 368.809 57.410,367.985 56.833,367.361 56.833 C 367.084 56.833,366.745 56.721,366.607 56.583 C 366.237 56.213,365.990 56.275,365.502 56.859 C 365.006 57.453,364.529 57.446,363.872 56.833 C 363.667 56.643,363.500 56.565,363.500 56.660 C 363.500 56.755,363.360 56.833,363.188 56.833 C 362.646 56.833,362.367 55.467,362.816 55.017 C 363.056 54.778,363.167 54.455,363.167 54.000 C 363.167 53.590,363.247 53.325,363.375 53.311 C 363.926 53.252,365.101 53.380,365.242 53.515 C 365.329 53.598,365.704 53.667,366.076 53.667 C 366.448 53.667,367.010 53.741,367.326 53.831 C 368.034 54.034,368.303 53.747,367.792 53.334 C 367.468 53.071,367.463 53.025,367.708 52.534 C 368.058 51.832,367.803 51.633,366.452 51.558 C 365.883 51.527,365.154 51.433,364.833 51.350 C 363.269 50.948,362.710 50.805,362.251 50.693 C 361.682 50.553,361.552 50.220,361.888 49.761 C 362.152 49.400,364.048 49.315,364.383 49.649 C 364.484 49.751,364.945 49.833,365.408 49.833 C 365.871 49.833,366.775 49.945,367.417 50.080 C 368.580 50.327,371.009 50.419,370.168 50.185 C 369.940 50.121,369.662 49.886,369.550 49.663 C 369.344 49.249,368.320 48.953,366.333 48.732 C 365.921 48.687,365.420 48.568,365.220 48.470 C 365.021 48.371,364.649 48.330,364.395 48.378 C 363.821 48.488,361.662 47.780,361.374 47.387 C 361.212 47.165,361.121 47.146,360.966 47.301 C 360.447 47.820,359.833 47.319,359.833 46.376 C 359.833 45.500,360.132 45.297,361.179 45.461 C 361.685 45.541,362.197 45.573,362.316 45.534 C 362.673 45.415,361.639 44.836,361.067 44.834 C 360.570 44.833,360.000 44.414,360.000 44.048 C 360.000 43.673,360.736 43.396,361.417 43.515 C 362.217 43.655,362.252 43.633,361.970 43.177 C 361.795 42.894,361.614 42.832,361.083 42.869 C 360.443 42.915,360.417 42.897,360.417 42.417 L 360.417 41.917 361.934 41.832 C 362.825 41.783,363.561 41.657,363.716 41.528 C 363.885 41.388,364.359 41.322,365.032 41.345 C 365.859 41.374,366.072 41.332,366.030 41.149 C 365.931 40.719,365.695 40.624,364.508 40.539 C 363.857 40.493,363.285 40.390,363.236 40.311 C 363.113 40.112,362.376 40.129,362.250 40.333 C 362.118 40.548,361.500 40.551,361.500 40.338 C 361.500 39.993,360.522 39.707,359.073 39.628 C 358.243 39.583,357.404 39.460,357.209 39.356 C 356.997 39.243,355.990 39.167,354.698 39.167 C 352.984 39.167,352.498 39.115,352.333 38.917 C 352.219 38.779,351.919 38.667,351.667 38.667 C 351.414 38.667,351.114 38.554,351.000 38.417 C 350.730 38.091,350.413 38.101,349.817 38.453 C 349.360 38.723,349.307 38.723,348.849 38.453 C 348.503 38.248,347.994 38.167,347.057 38.167 C 346.337 38.167,345.490 38.093,345.176 38.003 C 344.861 37.912,343.887 37.831,343.010 37.822 C 342.040 37.812,341.286 37.723,341.083 37.595 C 340.900 37.479,340.264 37.341,339.671 37.288 C 339.077 37.235,338.565 37.111,338.532 37.012 C 338.499 36.914,338.347 36.833,338.194 36.833 C 338.042 36.832,337.579 36.608,337.167 36.333 C 336.754 36.059,336.267 35.834,336.083 35.832 C 335.900 35.831,335.376 35.716,334.918 35.577 C 334.414 35.425,333.520 35.334,332.651 35.348 C 331.861 35.361,331.059 35.288,330.869 35.185 C 330.678 35.083,330.385 35.000,330.217 35.000 C 330.049 35.000,329.646 34.858,329.322 34.684 C 328.810 34.409,328.424 34.373,326.407 34.410 C 325.037 34.436,323.924 34.381,323.696 34.278 C 323.414 34.150,323.220 34.157,322.982 34.306 C 322.716 34.472,322.586 34.462,322.290 34.255 C 321.882 33.969,320.742 33.910,320.583 34.167 C 320.450 34.383,319.717 34.383,319.583 34.167 C 319.449 33.949,316.884 33.949,316.750 34.167 C 316.594 34.420,315.950 34.366,315.317 34.048 C 315.005 33.891,314.450 33.759,314.083 33.755 C 313.717 33.751,313.313 33.681,313.187 33.601 C 312.869 33.398,306.069 33.347,305.342 33.543 C 305.016 33.630,303.887 33.774,302.833 33.862 C 301.779 33.950,300.675 34.132,300.379 34.267 C 299.902 34.484,299.784 34.483,299.345 34.256 C 298.699 33.922,298.659 33.927,298.131 34.417 C 297.532 34.971,297.284 34.943,296.819 34.264 C 296.368 33.604,296.003 33.500,294.157 33.500 C 293.000 33.500,292.844 33.537,292.749 33.835 C 292.576 34.381,291.834 34.671,291.071 34.490 C 290.358 34.321,288.717 34.450,288.571 34.686 C 288.427 34.919,287.432 34.858,286.753 34.574 C 285.618 34.100,284.236 34.446,283.224 35.458 C 282.806 35.875,282.390 35.928,281.763 35.642 C 281.488 35.517,281.269 35.507,281.130 35.612 C 280.645 35.979,279.556 36.208,279.202 36.019 C 278.627 35.711,278.333 35.791,278.333 36.255 C 278.333 36.487,278.240 36.702,278.125 36.731 C 278.010 36.761,277.481 36.923,276.949 37.090 C 276.067 37.367,275.941 37.371,275.532 37.137 C 275.285 36.995,274.826 36.831,274.511 36.771 C 273.802 36.637,273.333 36.230,273.333 35.750 C 273.333 35.549,273.183 35.211,273.000 35.000 C 272.817 34.789,272.667 34.558,272.667 34.488 C 272.667 34.253,271.137 34.020,270.696 34.187 C 270.421 34.292,270.220 34.287,270.106 34.173 C 270.011 34.078,269.356 34.000,268.651 34.000 C 267.317 34.000,267.167 34.083,267.167 34.821 C 267.167 35.453,266.400 36.581,265.762 36.885 C 264.603 37.438,263.361 36.595,264.040 35.716 C 264.126 35.605,264.137 35.420,264.066 35.305 C 263.994 35.189,263.893 34.830,263.841 34.506 C 263.750 33.943,263.712 33.914,262.998 33.864 C 262.523 33.830,262.113 33.683,261.876 33.460 C 261.574 33.177,261.429 33.143,261.126 33.282 C 258.876 34.311,257.667 33.937,257.667 32.212 C 257.667 31.947,257.521 31.616,257.333 31.455 C 257.150 31.298,257.000 31.022,257.000 30.841 C 257.000 30.128,253.835 29.741,253.462 30.408 C 253.257 30.773,252.695 31.038,252.455 30.883 C 252.342 30.810,251.950 30.736,251.583 30.719 C 251.217 30.701,250.354 30.642,249.667 30.587 C 248.979 30.532,247.929 30.455,247.333 30.416 C 246.737 30.377,245.612 30.278,244.833 30.197 C 243.037 30.008,242.876 30.070,243.548 30.692 L 244.083 31.187 243.583 31.593 C 242.455 32.508,240.862 31.371,241.867 30.367 C 242.022 30.211,242.006 30.167,241.793 30.167 C 241.643 30.167,241.473 30.242,241.417 30.333 C 241.205 30.676,240.510 30.516,240.406 30.101 C 240.318 29.749,240.181 29.689,239.238 29.588 C 238.651 29.525,238.127 29.404,238.074 29.318 C 238.018 29.228,237.870 29.223,237.722 29.306 C 237.273 29.557,236.250 29.094,236.250 28.640 C 236.250 28.179,236.947 28.039,239.365 28.015 C 240.162 28.007,240.860 27.925,240.917 27.833 C 241.075 27.578,241.535 27.633,242.294 28.000 C 243.186 28.431,243.438 28.420,244.089 27.924 C 244.384 27.699,244.659 27.548,244.699 27.588 C 244.740 27.628,245.315 27.676,245.978 27.694 C 246.641 27.712,247.222 27.788,247.268 27.863 C 247.315 27.938,247.592 28.002,247.885 28.005 C 248.177 28.008,248.562 28.121,248.740 28.255 C 249.100 28.528,251.500 28.610,251.500 28.350 C 251.500 28.094,250.496 27.833,249.512 27.833 C 248.943 27.833,248.432 27.734,248.212 27.580 C 247.935 27.386,247.176 27.308,244.967 27.245 C 243.381 27.201,241.882 27.083,241.636 26.983 C 241.274 26.837,241.086 26.861,240.658 27.109 C 240.175 27.389,240.111 27.393,239.955 27.149 C 239.815 26.933,239.693 26.915,239.319 27.056 C 238.982 27.184,238.735 27.175,238.407 27.026 C 238.029 26.854,237.909 26.864,237.658 27.091 C 237.494 27.240,237.147 27.347,236.888 27.330 C 235.791 27.256,235.729 27.290,235.802 27.915 C 235.855 28.372,235.803 28.517,235.560 28.594 C 235.389 28.647,235.120 28.761,234.961 28.845 C 234.519 29.081,234.248 29.033,233.907 28.656 C 233.727 28.457,233.468 28.346,233.291 28.393 C 233.106 28.441,232.907 28.346,232.786 28.153 C 232.676 27.977,232.460 27.833,232.304 27.833 C 232.149 27.833,231.975 27.683,231.917 27.500 C 231.836 27.247,231.663 27.166,231.197 27.165 C 230.852 27.164,230.266 26.981,229.858 26.748 C 228.941 26.224,228.903 26.227,228.687 26.846 C 228.473 27.461,227.850 27.477,227.585 26.875 C 227.491 26.660,227.274 26.500,227.076 26.500 C 226.886 26.500,226.585 26.390,226.407 26.255 C 225.903 25.875,225.833 25.942,225.833 26.808 C 225.833 27.949,225.197 28.462,224.347 28.007 C 223.936 27.788,223.452 28.592,223.841 28.847 C 224.101 29.017,229.921 28.936,231.106 28.746 C 231.778 28.638,231.803 28.651,232.178 29.318 C 232.614 30.093,232.723 30.133,233.122 29.667 C 233.563 29.151,234.291 29.231,234.633 29.832 C 234.789 30.107,235.043 30.332,235.198 30.332 C 235.567 30.334,235.753 30.647,235.523 30.877 C 235.393 31.007,235.224 31.004,234.921 30.866 C 234.514 30.680,234.500 30.693,234.500 31.265 C 234.500 32.465,233.802 32.837,232.657 32.245 C 232.230 32.024,232.105 32.022,231.720 32.224 C 231.386 32.398,231.126 32.416,230.685 32.294 C 230.361 32.205,229.768 32.168,229.369 32.213 C 228.969 32.258,228.221 32.185,227.707 32.051 C 226.996 31.865,226.676 31.851,226.367 31.992 C 225.927 32.193,225.397 32.088,225.038 31.728 C 224.912 31.603,224.642 31.500,224.438 31.500 C 224.234 31.500,223.995 31.434,223.908 31.354 C 223.591 31.062,221.591 30.979,221.242 31.243 C 220.768 31.602,220.520 31.555,220.402 31.083 C 220.330 30.797,220.183 30.667,219.930 30.667 C 219.729 30.667,219.418 30.557,219.240 30.422 C 219.062 30.287,218.645 30.175,218.313 30.172 C 217.554 30.165,216.167 29.564,216.167 29.242 C 216.167 28.963,216.438 28.929,218.188 28.990 C 218.981 29.018,219.502 28.965,219.573 28.851 C 219.635 28.749,219.835 28.667,220.016 28.667 C 220.197 28.667,220.530 28.545,220.757 28.397 C 221.079 28.186,221.220 28.170,221.407 28.325 C 221.587 28.474,221.732 28.476,221.999 28.334 C 222.194 28.230,222.568 28.192,222.830 28.249 C 223.252 28.342,223.297 28.314,223.218 28.010 C 223.129 27.671,222.933 27.602,222.221 27.658 C 222.022 27.674,221.557 27.497,221.188 27.264 C 220.819 27.031,220.207 26.790,219.828 26.730 C 218.956 26.590,218.510 25.855,218.798 25.030 C 218.940 24.622,218.926 24.507,218.723 24.429 C 218.161 24.214,217.860 24.334,217.753 24.818 C 217.566 25.669,215.801 25.725,215.591 24.886 C 215.347 23.918,214.382 23.990,213.790 25.021 C 213.270 25.928,212.050 26.038,211.357 25.242 C 211.162 25.017,210.847 24.833,210.657 24.833 C 209.870 24.833,209.263 24.276,209.522 23.792 C 209.660 23.534,209.809 23.501,210.413 23.592 C 211.085 23.692,211.143 23.671,211.195 23.309 C 211.238 23.004,211.356 22.915,211.726 22.910 C 212.401 22.900,212.802 21.841,212.302 21.389 C 212.040 21.151,211.923 21.135,211.660 21.299 C 211.236 21.563,211.029 21.553,210.726 21.250 C 210.466 20.990,209.740 20.908,209.613 21.125 M214.808 22.387 C 214.564 22.541,214.560 22.603,214.774 22.930 C 215.053 23.356,215.592 23.302,215.714 22.835 C 215.817 22.444,215.200 22.139,214.808 22.387 M143.250 24.000 C 142.984 24.114,143.045 24.146,143.552 24.155 C 143.935 24.162,144.146 24.101,144.083 24.000 C 143.962 23.803,143.708 23.803,143.250 24.000 M255.366 26.785 C 255.155 26.826,254.914 27.022,254.830 27.221 C 254.473 28.072,254.208 28.249,253.612 28.033 C 252.652 27.686,251.939 27.758,252.289 28.167 C 252.649 28.588,254.573 28.649,255.093 28.255 C 255.271 28.121,255.539 28.008,255.688 28.005 C 255.837 28.002,256.051 27.889,256.163 27.754 C 256.343 27.538,256.423 27.538,256.842 27.754 C 257.103 27.889,257.489 28.002,257.700 28.005 C 257.911 28.008,258.229 28.121,258.407 28.255 C 258.847 28.588,258.985 28.563,258.882 28.167 C 258.812 27.900,258.654 27.833,258.097 27.833 C 257.311 27.833,257.000 27.611,257.000 27.050 C 257.000 26.655,256.485 26.572,255.366 26.785 M59.685 28.708 C 59.544 29.092,58.887 29.287,58.384 29.094 C 58.048 28.965,58.372 28.550,58.887 28.449 C 59.738 28.284,59.830 28.314,59.685 28.708 M238.661 31.375 C 238.645 33.098,235.859 33.719,235.697 32.036 C 235.616 31.187,236.142 30.846,237.542 30.839 L 238.667 30.833 238.661 31.375 M206.406 31.329 C 207.217 31.638,206.590 33.072,205.689 32.968 C 204.781 32.862,204.976 31.510,205.947 31.177 C 205.964 31.171,206.171 31.240,206.406 31.329 M253.918 31.501 C 254.074 31.755,253.842 32.333,253.583 32.333 C 253.325 32.333,253.092 31.755,253.249 31.501 C 253.306 31.409,253.457 31.333,253.583 31.333 C 253.710 31.333,253.860 31.409,253.918 31.501 M315.250 35.333 C 315.307 35.425,315.707 35.500,316.139 35.500 C 317.013 35.500,317.667 35.853,317.667 36.325 C 317.667 37.142,314.028 37.071,313.776 36.250 C 313.576 35.597,314.903 34.772,315.250 35.333 M254.333 36.667 C 254.333 36.850,254.228 37.000,254.099 37.000 C 253.947 37.000,253.895 36.883,253.952 36.667 C 254.000 36.483,254.105 36.333,254.186 36.333 C 254.267 36.333,254.333 36.483,254.333 36.667 M374.792 43.118 C 374.998 43.157,375.335 43.157,375.542 43.118 C 375.748 43.078,375.579 43.045,375.167 43.045 C 374.754 43.045,374.585 43.078,374.792 43.118 M364.500 43.810 C 364.500 44.077,364.677 44.131,365.812 44.209 C 366.534 44.258,367.279 44.382,367.468 44.483 C 367.657 44.584,368.173 44.657,368.614 44.646 L 369.417 44.625 368.519 44.495 C 368.026 44.423,367.574 44.286,367.514 44.190 C 367.455 44.094,367.089 43.965,366.700 43.903 C 366.311 43.840,365.952 43.724,365.903 43.645 C 365.713 43.337,364.500 43.479,364.500 43.810 M374.333 51.172 C 374.333 51.242,374.652 51.340,375.042 51.390 C 376.507 51.577,377.936 51.827,378.499 51.994 C 379.346 52.245,379.589 52.225,379.340 51.925 C 379.230 51.792,378.789 51.636,378.361 51.579 C 377.933 51.522,377.396 51.412,377.167 51.334 C 376.604 51.142,374.333 51.012,374.333 51.172 M381.409 51.817 C 381.321 51.900,381.100 52.000,380.917 52.039 C 380.726 52.080,380.939 52.165,381.417 52.238 C 381.875 52.308,382.673 52.470,383.191 52.599 C 384.304 52.876,384.667 52.893,384.667 52.667 C 384.667 52.575,384.458 52.500,384.204 52.500 C 383.949 52.500,383.593 52.399,383.412 52.275 C 383.231 52.151,382.858 51.997,382.583 51.934 C 382.308 51.870,381.967 51.783,381.825 51.742 C 381.684 51.700,381.496 51.734,381.409 51.817 M355.167 52.750 C 355.167 53.100,354.597 53.364,354.359 53.126 C 354.104 52.871,354.114 52.380,354.375 52.286 C 354.673 52.180,355.167 52.469,355.167 52.750 M352.621 52.611 C 352.656 52.718,352.534 52.853,352.349 52.912 C 351.952 53.038,351.278 52.724,351.428 52.482 C 351.566 52.259,352.540 52.364,352.621 52.611 M360.964 52.823 C 362.151 52.837,362.621 53.838,361.565 54.103 C 361.346 54.158,361.167 54.309,361.167 54.438 C 361.167 54.568,360.979 54.759,360.750 54.864 C 360.521 54.968,360.333 55.154,360.333 55.277 C 360.333 55.400,360.183 55.500,360.000 55.500 C 359.817 55.500,359.667 55.389,359.667 55.254 C 359.667 54.897,358.790 54.500,358.003 54.500 C 356.440 54.500,355.622 53.752,356.428 53.059 C 356.879 52.672,356.988 52.654,358.494 52.731 C 359.368 52.776,360.480 52.817,360.964 52.823 M373.625 53.121 C 373.923 53.158,374.410 53.158,374.708 53.121 C 375.006 53.084,374.762 53.053,374.167 53.053 C 373.571 53.053,373.327 53.084,373.625 53.121 M386.292 53.208 C 386.590 53.303,386.833 53.446,386.833 53.524 C 386.833 53.603,386.995 53.667,387.192 53.667 C 387.541 53.667,387.543 53.657,387.250 53.333 C 387.047 53.109,386.753 53.006,386.349 53.017 L 385.750 53.034 386.292 53.208 M352.392 54.411 C 352.507 54.713,352.285 54.868,351.932 54.733 C 351.614 54.611,351.587 54.393,351.875 54.277 C 352.221 54.137,352.294 54.156,352.392 54.411 M361.750 56.333 C 361.750 56.471,361.581 56.607,361.375 56.637 C 361.086 56.678,361.000 56.608,361.000 56.333 C 361.000 56.059,361.086 55.989,361.375 56.030 C 361.581 56.059,361.750 56.196,361.750 56.333 M372.795 57.454 C 373.094 57.491,373.544 57.490,373.795 57.452 C 374.045 57.414,373.800 57.384,373.250 57.385 C 372.700 57.386,372.495 57.417,372.795 57.454 M363.131 59.687 C 363.186 59.971,362.745 60.235,362.485 60.074 C 362.402 60.022,362.333 59.830,362.333 59.645 C 362.333 59.229,363.051 59.267,363.131 59.687 M374.546 62.388 C 374.587 62.513,375.089 62.592,375.930 62.608 L 377.250 62.632 376.167 62.490 C 375.571 62.411,374.948 62.313,374.782 62.270 C 374.601 62.224,374.507 62.271,374.546 62.388 M377.667 62.905 C 377.667 63.042,378.010 63.157,378.625 63.225 C 379.152 63.283,379.752 63.378,379.958 63.435 C 380.227 63.509,380.333 63.468,380.333 63.288 C 380.333 63.024,379.657 62.836,378.375 62.742 C 377.882 62.706,377.667 62.756,377.667 62.905 M357.306 65.657 C 357.375 66.128,357.146 66.379,356.778 66.238 C 356.453 66.113,356.413 65.654,356.702 65.365 C 356.984 65.083,357.240 65.207,357.306 65.657 M365.250 70.917 C 365.250 71.176,365.159 71.419,365.048 71.456 C 364.815 71.534,364.579 70.777,364.750 70.501 C 364.949 70.177,365.250 70.427,365.250 70.917 M367.307 71.085 C 367.441 71.218,367.258 71.323,366.696 71.436 C 366.227 71.530,366.167 71.499,366.167 71.167 C 366.167 70.814,366.978 70.756,367.307 71.085 M378.583 73.833 C 378.583 74.164,378.489 74.261,378.125 74.303 C 377.671 74.355,377.444 73.778,377.785 73.437 C 378.061 73.161,378.583 73.420,378.583 73.833 M356.833 76.029 C 356.833 76.287,356.737 76.344,356.376 76.303 C 355.849 76.242,355.651 75.731,356.115 75.628 C 356.577 75.526,356.833 75.669,356.833 76.029 M348.631 76.354 C 348.699 76.708,348.231 76.880,347.810 76.654 C 347.540 76.510,347.516 76.431,347.683 76.230 C 347.943 75.917,348.564 75.998,348.631 76.354 M370.446 76.449 C 370.646 76.488,370.899 76.628,371.008 76.760 C 371.309 77.122,371.833 77.063,371.833 76.667 C 371.833 76.373,371.730 76.336,370.958 76.356 C 370.477 76.369,370.247 76.411,370.446 76.449 M374.000 77.006 C 374.341 77.087,374.649 77.080,374.742 76.989 C 374.840 76.892,374.619 76.840,374.158 76.850 L 373.417 76.867 374.000 77.006 M358.917 77.421 C 358.550 77.553,358.231 77.663,358.208 77.664 C 357.662 77.697,358.532 77.985,359.625 78.132 C 362.391 78.505,362.794 78.532,362.909 78.347 C 363.091 78.051,363.642 78.143,363.833 78.500 C 363.973 78.760,364.184 78.834,364.798 78.836 C 365.230 78.838,366.108 78.950,366.750 79.086 C 367.392 79.222,368.479 79.329,369.167 79.323 L 370.417 79.313 369.750 79.008 C 368.926 78.632,367.529 78.295,367.322 78.423 C 366.914 78.676,364.652 78.512,364.205 78.198 C 363.810 77.920,362.715 77.686,360.583 77.425 C 360.308 77.391,359.971 77.323,359.833 77.272 C 359.696 77.222,359.283 77.289,358.917 77.421 M376.625 77.451 C 376.831 77.491,377.169 77.491,377.375 77.451 C 377.581 77.411,377.412 77.379,377.000 77.379 C 376.587 77.379,376.419 77.411,376.625 77.451 M373.000 79.700 C 373.000 79.774,373.403 79.833,373.896 79.833 C 374.490 79.833,374.863 79.918,375.000 80.083 C 375.114 80.221,375.456 80.333,375.760 80.333 C 376.063 80.333,376.490 80.401,376.708 80.484 C 376.927 80.567,377.550 80.678,378.094 80.732 C 378.903 80.810,378.986 80.798,378.550 80.661 C 378.256 80.570,377.971 80.421,377.915 80.331 C 377.859 80.240,377.473 80.167,377.057 80.167 C 376.641 80.167,376.064 80.060,375.775 79.929 C 375.199 79.669,373.000 79.487,373.000 79.700 M365.208 80.782 C 365.369 80.823,365.631 80.823,365.792 80.782 C 365.952 80.740,365.821 80.705,365.500 80.705 C 365.179 80.705,365.048 80.740,365.208 80.782 M349.917 81.664 C 349.917 81.801,349.804 81.932,349.667 81.956 C 349.307 82.019,348.936 81.738,349.078 81.509 C 349.245 81.238,349.917 81.362,349.917 81.664 M354.303 84.471 C 354.338 84.707,354.268 84.833,354.105 84.833 C 353.776 84.833,353.639 84.598,353.770 84.258 C 353.910 83.892,354.237 84.023,354.303 84.471 M348.833 86.333 C 349.440 86.940,349.048 87.333,347.839 87.333 C 346.947 87.333,346.775 86.954,347.419 86.401 C 347.987 85.913,348.393 85.893,348.833 86.333 M374.879 87.021 C 374.543 87.357,374.120 87.064,374.342 86.650 C 374.517 86.323,374.554 86.316,374.801 86.563 C 375.002 86.763,375.021 86.879,374.879 87.021 M362.967 89.467 C 362.897 90.053,362.546 90.116,362.304 89.584 C 362.141 89.228,362.146 89.116,362.328 89.003 C 362.700 88.774,363.022 89.007,362.967 89.467 M370.605 90.939 C 369.678 91.441,370.367 91.730,372.625 91.787 C 374.831 91.842,375.232 91.775,374.737 91.434 C 374.194 91.061,373.243 90.958,373.003 91.247 C 372.698 91.614,372.344 91.558,371.970 91.083 C 371.595 90.606,371.281 90.573,370.605 90.939 M375.833 91.646 C 375.833 91.901,376.771 92.194,377.355 92.122 C 377.879 92.058,377.871 92.052,377.226 92.027 C 376.785 92.010,376.501 91.910,376.440 91.750 C 376.338 91.485,375.833 91.399,375.833 91.646 M356.833 92.311 C 356.833 92.577,356.697 92.839,356.490 92.967 C 356.237 93.126,356.161 93.321,356.199 93.716 C 356.259 94.345,355.785 94.495,355.697 93.875 C 355.665 93.651,355.527 93.500,355.355 93.500 C 354.524 93.500,354.412 92.466,355.208 92.152 C 356.573 91.614,356.833 91.640,356.833 92.311 M349.083 92.750 C 349.083 92.918,348.990 93.087,348.875 93.125 C 348.743 93.169,348.667 93.031,348.667 92.750 C 348.667 92.469,348.743 92.331,348.875 92.375 C 348.990 92.413,349.083 92.582,349.083 92.750 M378.692 92.759 C 378.724 92.922,378.851 93.089,378.974 93.130 C 379.118 93.178,379.178 93.098,379.141 92.908 C 379.109 92.745,378.982 92.577,378.859 92.536 C 378.716 92.489,378.656 92.569,378.692 92.759 M364.925 94.797 C 364.875 94.848,364.833 95.062,364.833 95.274 C 364.833 95.763,364.265 96.707,363.879 96.860 C 363.699 96.931,363.893 96.981,364.375 96.988 C 365.059 96.998,365.167 96.955,365.167 96.667 C 365.167 96.239,365.696 95.709,366.195 95.638 C 366.868 95.543,366.639 95.119,365.800 94.905 C 365.369 94.795,364.975 94.747,364.925 94.797 M359.037 95.760 C 359.197 95.919,358.972 96.500,358.750 96.500 C 358.528 96.500,358.303 95.919,358.463 95.760 C 358.514 95.709,358.643 95.667,358.750 95.667 C 358.857 95.667,358.986 95.709,359.037 95.760 M338.327 97.697 C 338.699 98.307,338.640 98.500,338.085 98.500 C 337.643 98.500,337.412 98.039,337.583 97.500 C 337.733 97.027,337.956 97.086,338.327 97.697 M359.118 99.500 C 359.032 99.831,359.317 99.963,359.567 99.708 C 359.635 99.640,360.003 99.497,360.387 99.391 L 361.083 99.199 360.144 99.183 C 359.338 99.169,359.193 99.214,359.118 99.500 M299.167 111.146 C 299.167 111.227,299.279 111.386,299.417 111.500 C 299.554 111.614,299.673 111.830,299.680 111.979 C 299.691 112.205,299.708 112.209,299.784 112.000 C 299.835 111.862,300.029 111.581,300.217 111.375 L 300.558 111.000 299.862 111.000 C 299.480 111.000,299.167 111.066,299.167 111.146 M285.667 114.500 C 285.667 114.862,285.544 114.909,285.187 114.683 C 284.918 114.512,285.079 114.167,285.427 114.167 C 285.559 114.167,285.667 114.317,285.667 114.500 M283.500 118.272 C 283.500 118.573,283.167 118.734,282.964 118.531 C 282.865 118.432,282.842 118.156,282.909 117.887 C 283.032 117.399,283.500 117.704,283.500 118.272 M15.062 118.202 C 15.253 118.507,14.857 119.208,14.293 119.563 C 13.962 119.772,13.333 119.285,13.333 118.820 C 13.333 118.076,14.681 117.595,15.062 118.202 M91.063 120.091 C 91.114 120.223,91.038 120.425,90.895 120.540 C 90.752 120.656,90.472 120.911,90.273 121.107 C 90.023 121.354,89.628 121.490,88.997 121.548 C 88.495 121.593,87.727 121.727,87.291 121.844 C 86.048 122.178,85.354 121.422,85.912 120.342 L 86.158 119.867 88.565 119.859 C 90.508 119.853,90.989 119.898,91.063 120.091 M276.835 120.337 C 277.076 120.787,276.915 121.000,276.333 121.000 C 275.741 121.000,275.590 120.785,275.868 120.340 C 276.139 119.905,276.603 119.904,276.835 120.337 M138.657 121.316 C 138.783 121.552,138.762 121.685,138.573 121.842 C 138.234 122.123,137.929 121.819,138.078 121.350 C 138.216 120.915,138.436 120.902,138.657 121.316 M124.467 121.700 C 124.538 122.069,124.023 122.527,123.604 122.467 C 123.200 122.410,123.033 121.779,123.327 121.424 C 123.566 121.136,124.397 121.338,124.467 121.700 M101.708 121.455 C 100.602 121.520,100.279 121.858,101.042 122.153 C 101.248 122.233,101.598 122.493,101.821 122.732 C 102.319 123.268,102.389 123.269,103.069 122.750 C 103.689 122.276,104.099 122.232,104.745 122.567 C 105.692 123.058,105.851 124.052,105.050 124.469 C 104.545 124.731,100.784 124.549,100.565 124.252 C 100.431 124.069,100.061 124.000,99.216 124.000 C 97.914 124.000,97.500 123.745,97.500 122.944 C 97.500 122.544,97.466 122.518,97.177 122.699 C 96.781 122.946,96.062 122.625,95.905 122.130 C 95.708 121.510,93.833 121.306,93.833 121.905 C 93.833 122.170,94.543 122.667,94.922 122.667 C 95.891 122.667,95.999 123.523,95.078 123.908 C 94.778 124.034,94.482 124.293,94.421 124.485 C 94.329 124.776,94.176 124.833,93.489 124.833 C 93.037 124.833,92.667 124.903,92.667 124.989 C 92.667 125.245,93.297 125.365,93.649 125.176 C 94.170 124.897,94.784 124.961,94.874 125.303 C 94.967 125.661,98.772 125.669,99.449 125.313 C 99.740 125.160,99.934 125.176,100.391 125.393 C 101.144 125.750,101.595 125.738,102.233 125.344 C 102.672 125.072,103.033 125.025,104.503 125.049 C 105.665 125.067,106.456 124.998,106.864 124.842 C 107.369 124.649,107.524 124.646,107.739 124.824 C 107.964 125.011,108.000 124.984,108.000 124.627 C 108.000 124.275,107.937 124.225,107.582 124.293 C 106.971 124.410,106.667 124.067,106.667 123.263 C 106.667 122.428,106.889 122.167,107.599 122.167 C 107.924 122.167,108.169 122.067,108.229 121.910 C 108.360 121.570,107.957 121.431,107.387 121.621 C 107.072 121.726,106.796 121.706,106.496 121.556 C 106.175 121.396,105.911 121.383,105.489 121.507 C 105.174 121.599,104.617 121.631,104.250 121.578 C 103.074 121.409,102.770 121.394,101.708 121.455 M98.758 121.623 C 97.676 121.782,97.503 122.167,98.513 122.167 C 99.356 122.167,99.833 121.974,99.833 121.633 C 99.833 121.497,99.623 121.495,98.758 121.623 M92.500 121.917 C 92.500 122.054,92.575 122.167,92.667 122.167 C 92.758 122.167,92.833 122.054,92.833 121.917 C 92.833 121.779,92.758 121.667,92.667 121.667 C 92.575 121.667,92.500 121.779,92.500 121.917 M271.994 122.596 C 271.815 123.065,271.800 123.071,271.571 122.760 C 271.281 122.364,271.271 122.129,271.535 121.865 C 271.898 121.502,272.218 122.010,271.994 122.596 M123.789 123.447 C 123.877 123.715,123.287 124.011,123.008 123.839 C 122.666 123.627,122.937 123.134,123.361 123.197 C 123.561 123.226,123.753 123.339,123.789 123.447 M108.722 123.449 C 108.524 123.488,108.316 123.638,108.260 123.784 C 108.109 124.179,108.292 124.256,108.637 123.943 C 108.805 123.791,109.073 123.667,109.231 123.667 C 109.390 123.667,109.473 123.592,109.417 123.500 C 109.360 123.408,109.262 123.344,109.198 123.356 C 109.135 123.369,108.921 123.410,108.722 123.449 M202.658 124.155 C 203.856 125.075,202.027 127.738,200.765 126.911 C 200.065 126.452,200.142 125.248,200.925 124.442 C 201.585 123.762,202.048 123.685,202.658 124.155 M123.933 124.711 C 123.878 124.985,123.833 125.306,123.833 125.426 C 123.833 125.696,123.309 125.877,122.940 125.736 C 122.387 125.524,122.630 124.267,123.250 124.133 C 123.842 124.006,124.040 124.174,123.933 124.711 M49.914 124.329 C 50.026 124.510,49.540 125.333,49.320 125.333 C 49.099 125.333,48.797 124.667,48.899 124.404 C 49.001 124.136,49.760 124.080,49.914 124.329 M51.423 124.343 C 51.482 124.440,51.485 124.704,51.428 124.930 C 51.312 125.391,50.805 125.267,50.597 124.726 C 50.430 124.289,51.175 123.943,51.423 124.343 M68.467 124.867 C 68.749 125.149,68.717 125.365,68.318 125.861 C 67.927 126.347,67.414 126.327,67.282 125.820 C 67.110 125.166,68.028 124.428,68.467 124.867 M108.750 127.041 C 108.528 127.172,107.295 127.247,105.057 127.266 C 103.209 127.282,101.618 127.344,101.521 127.404 C 101.424 127.464,100.926 127.391,100.413 127.242 C 99.756 127.051,99.227 127.006,98.616 127.090 C 97.096 127.299,96.979 127.450,98.250 127.567 C 98.892 127.626,99.647 127.748,99.928 127.837 C 100.695 128.081,101.442 128.034,101.754 127.722 C 101.989 127.487,102.115 127.475,102.580 127.643 C 103.221 127.874,108.118 127.880,108.261 127.649 C 108.312 127.567,108.724 127.500,109.177 127.500 C 110.061 127.500,110.167 127.413,109.708 127.065 C 109.349 126.793,109.177 126.788,108.750 127.041 M111.500 127.133 C 110.581 127.224,110.486 127.500,111.373 127.500 C 111.799 127.500,112.190 127.430,112.243 127.345 C 112.379 127.125,112.172 127.067,111.500 127.133 M92.544 127.453 C 92.797 127.491,93.172 127.490,93.377 127.451 C 93.582 127.411,93.375 127.380,92.917 127.381 C 92.458 127.382,92.291 127.415,92.544 127.453 M139.278 129.278 C 138.981 129.575,139.201 129.833,139.750 129.833 L 140.333 129.833 140.000 129.500 C 139.650 129.150,139.463 129.093,139.278 129.278 M138.333 131.750 C 138.219 131.887,137.957 132.000,137.750 132.000 C 137.543 132.000,137.275 132.119,137.155 132.264 C 136.992 132.460,136.760 132.504,136.259 132.434 C 135.888 132.381,135.508 132.343,135.417 132.347 C 135.325 132.352,134.313 132.395,133.167 132.443 C 132.022 132.491,131.047 132.586,131.001 132.654 C 130.710 133.084,130.234 133.132,129.628 132.792 C 129.114 132.503,128.939 132.475,128.627 132.635 C 128.420 132.741,127.987 132.831,127.667 132.835 C 127.346 132.838,124.770 132.860,121.942 132.883 C 117.093 132.922,116.787 132.943,116.567 133.244 C 116.195 133.753,116.290 133.977,116.929 134.097 C 117.686 134.239,118.188 135.667,117.481 135.667 C 117.146 135.667,117.370 136.155,117.884 136.547 C 118.535 137.044,121.858 137.100,123.379 136.640 L 124.175 136.399 123.739 135.991 C 122.925 135.230,122.911 135.047,123.614 134.323 C 124.390 133.522,125.699 133.419,125.427 134.180 C 125.373 134.329,125.605 134.576,126.056 134.849 C 126.561 135.155,126.819 135.447,126.936 135.849 C 127.074 136.320,127.171 136.408,127.509 136.363 C 127.733 136.334,128.142 136.291,128.417 136.269 C 128.692 136.246,129.250 136.168,129.658 136.094 L 130.400 135.959 129.700 135.546 C 128.347 134.747,128.889 134.167,130.988 134.167 L 132.522 134.167 133.073 133.583 C 133.633 132.989,134.105 132.866,134.670 133.168 C 135.126 133.413,135.029 135.020,134.526 135.556 C 134.026 136.088,134.309 136.309,135.296 136.160 C 135.727 136.094,136.174 136.077,136.291 136.122 C 136.407 136.167,136.687 136.083,136.912 135.935 C 137.404 135.613,137.726 135.597,138.169 135.873 C 138.436 136.041,138.572 136.035,138.875 135.845 C 139.268 135.598,140.613 135.585,140.911 135.824 C 141.394 136.212,142.851 136.208,143.267 135.818 C 144.197 134.944,144.268 133.720,143.408 133.390 C 143.255 133.331,143.167 133.061,143.167 132.649 L 143.167 132.000 142.250 132.000 C 141.746 132.000,141.333 131.934,141.333 131.853 C 141.333 131.584,140.695 131.533,140.247 131.766 C 139.869 131.962,139.737 131.959,139.328 131.747 C 138.729 131.438,138.592 131.438,138.333 131.750 M98.782 132.401 C 98.616 132.530,98.541 132.672,98.615 132.717 C 98.839 132.855,99.733 132.889,100.006 132.770 C 100.323 132.632,101.677 132.712,101.952 132.885 C 102.516 133.239,104.317 133.224,104.223 132.865 C 104.138 132.539,103.997 132.514,101.941 132.456 C 100.736 132.423,99.600 132.344,99.417 132.281 C 99.221 132.215,98.958 132.264,98.782 132.401 M92.792 132.618 C 92.998 132.657,93.335 132.657,93.542 132.618 C 93.748 132.578,93.579 132.545,93.167 132.545 C 92.754 132.545,92.585 132.578,92.792 132.618 M107.583 133.011 L 106.250 133.106 107.583 133.139 C 109.115 133.177,109.235 133.228,109.553 133.984 L 109.787 134.541 109.907 134.063 C 110.194 132.921,111.000 132.848,112.383 133.838 C 113.404 134.569,113.439 134.747,112.710 135.492 C 112.315 135.897,112.314 135.902,112.656 136.028 C 112.849 136.100,113.000 136.304,113.000 136.495 C 113.000 136.747,113.109 136.833,113.427 136.833 C 113.697 136.833,113.811 136.766,113.738 136.648 C 113.029 135.500,114.433 133.000,115.300 133.867 C 115.562 134.129,115.884 133.825,115.740 133.451 C 115.553 132.962,111.418 132.740,107.583 133.011 M119.422 134.342 C 119.574 134.588,119.017 135.700,118.779 135.622 C 118.562 135.550,118.425 134.770,118.566 134.403 C 118.671 134.128,119.264 134.086,119.422 134.342 M131.875 135.948 C 132.035 135.990,132.298 135.990,132.458 135.948 C 132.619 135.906,132.487 135.872,132.167 135.872 C 131.846 135.872,131.715 135.906,131.875 135.948 " stroke="none" fill="#040404" fill-rule="evenodd"></path></g></svg>