<svg id="svg" version="1.1" xmlns="http://www.w3.org/2000/svg" xmlns:xlink="http://www.w3.org/1999/xlink" width="400" height="400" viewBox="0, 0, 400,400"><g id="svgg"><path id="path0" d="M195.000 58.628 C 186.316 59.808,179.516 62.062,174.379 65.462 L 172.903 66.438 170.309 65.250 C 159.547 60.321,142.432 64.493,131.767 74.645 C 124.966 81.119,121.900 88.334,121.099 99.747 L 120.625 106.493 118.612 107.451 C 112.197 110.503,104.257 118.973,100.959 126.284 C 92.292 145.498,97.870 173.495,111.753 180.465 C 112.659 180.919,113.988 181.732,114.707 182.271 C 130.901 194.414,153.865 191.257,161.011 175.907 C 161.551 174.748,161.994 173.587,161.996 173.326 C 161.998 173.065,162.172 172.401,162.381 171.850 L 162.762 170.847 165.081 171.707 C 176.740 176.028,191.106 167.849,192.846 155.900 C 193.374 152.272,193.176 152.349,196.612 154.437 C 202.234 157.852,205.553 159.332,211.323 160.994 C 221.800 164.014,234.074 163.234,241.074 159.103 C 242.512 158.255,243.600 158.389,243.600 159.415 C 243.600 162.846,248.959 170.169,253.839 173.409 C 269.894 184.065,289.916 181.718,299.065 168.108 C 304.836 159.525,303.873 143.281,297.083 134.661 L 295.871 133.122 297.301 130.261 C 299.677 125.507,300.470 122.637,300.700 117.961 C 301.021 111.413,299.371 105.051,298.097 107.923 C 296.398 111.752,290.400 110.281,290.400 106.036 C 290.400 103.418,292.212 101.852,294.975 102.081 L 297.138 102.261 296.491 100.630 C 293.401 92.840,282.580 83.121,275.522 81.797 C 274.273 81.562,273.986 81.256,272.963 79.066 C 269.844 72.391,262.076 65.541,255.200 63.403 C 253.990 63.027,252.460 62.540,251.800 62.322 C 242.649 59.290,231.822 60.503,225.923 65.219 C 224.259 66.551,223.530 66.680,222.782 65.778 C 219.245 61.516,203.520 57.469,195.000 58.628 M247.800 72.072 C 262.756 74.380,276.964 93.048,266.010 95.997 C 263.735 96.610,262.824 96.058,259.874 92.279 C 253.803 84.506,248.145 81.204,238.807 79.986 C 235.158 79.511,234.014 78.597,233.712 75.920 C 233.237 71.703,237.631 70.503,247.800 72.072 M202.431 103.169 C 205.039 105.777,203.243 110.000,199.527 110.000 C 196.999 110.000,195.600 108.613,195.600 106.106 C 195.600 102.258,199.740 100.478,202.431 103.169 M293.116 103.187 C 292.392 103.573,291.630 104.365,291.423 104.945 C 290.332 107.997,294.072 110.520,296.660 108.479 C 299.636 106.132,296.464 101.397,293.116 103.187 M197.565 103.313 C 195.531 104.875,195.819 107.746,198.136 108.994 C 201.302 110.699,204.380 106.343,201.818 103.782 C 200.739 102.703,198.659 102.473,197.565 103.313 M286.085 107.500 C 292.625 112.586,291.075 125.591,283.929 125.599 C 281.043 125.601,279.990 122.449,281.484 118.280 C 282.138 116.455,282.137 116.237,281.455 113.880 C 279.483 107.066,281.664 104.061,286.085 107.500 M116.201 124.121 C 118.409 126.329,118.476 129.018,116.582 139.391 C 114.612 150.181,116.639 158.285,122.989 165.000 C 128.281 170.598,128.105 175.395,122.575 176.225 C 112.899 177.676,103.433 164.080,103.480 148.800 C 103.534 131.245,110.266 118.186,116.201 124.121 M238.967 140.243 C 241.345 141.155,237.441 147.865,233.089 150.344 C 225.972 154.397,215.296 154.263,214.879 150.114 C 214.728 148.617,216.656 146.800,218.396 146.800 C 222.351 146.800,226.686 145.323,233.600 141.622 C 236.536 140.051,237.692 139.753,238.967 140.243 " stroke="none" fill="#71a741" fill-rule="evenodd"></path><path id="path1" d="M205.027 173.264 C 204.914 173.779,204.530 176.264,204.174 178.787 C 203.818 181.310,203.294 184.550,203.009 185.987 C 201.466 193.772,200.694 197.259,199.995 199.600 C 199.567 201.030,199.155 202.740,199.078 203.400 C 199.002 204.060,198.747 205.050,198.512 205.600 C 198.277 206.150,197.504 208.580,196.794 211.000 C 194.611 218.440,190.822 229.816,190.281 230.557 C 189.654 231.414,189.897 231.850,185.974 222.833 C 181.007 211.414,170.498 190.012,169.710 189.710 C 169.425 189.601,167.974 190.656,166.486 192.056 C 161.909 196.359,156.227 200.800,155.297 200.800 C 154.000 200.800,153.468 202.375,154.182 204.099 C 156.472 209.630,160.507 221.239,161.308 224.600 C 161.413 225.040,161.946 227.110,162.492 229.200 C 163.039 231.290,163.686 233.990,163.931 235.200 C 164.176 236.410,164.559 238.300,164.782 239.400 C 168.855 259.443,167.735 288.150,162.006 310.551 C 161.563 312.284,161.200 314.013,161.200 314.395 C 161.200 315.020,165.559 319.252,167.153 320.174 C 167.509 320.380,168.026 320.773,168.302 321.048 C 168.934 321.676,176.238 327.261,177.135 327.801 C 177.501 328.021,178.969 329.011,180.399 330.001 C 182.959 331.773,190.279 336.000,190.788 336.000 C 190.932 336.000,191.849 336.386,192.825 336.858 C 194.924 337.872,199.622 339.554,201.600 340.000 C 211.143 342.151,218.702 342.116,226.400 339.886 C 228.474 339.285,228.176 340.434,229.384 328.400 C 230.057 321.702,230.917 315.503,231.576 312.600 C 231.776 311.720,232.146 309.650,232.398 308.000 C 233.092 303.461,235.604 291.916,237.228 285.800 C 239.821 276.032,241.803 269.030,242.663 266.600 C 243.207 265.060,244.000 262.630,244.425 261.200 C 244.850 259.770,245.833 256.710,246.609 254.400 C 247.385 252.090,248.312 249.300,248.669 248.200 C 249.026 247.100,249.451 246.020,249.613 245.800 C 249.775 245.580,250.549 243.690,251.332 241.600 C 252.984 237.194,254.601 233.138,255.423 231.340 C 255.741 230.646,256.000 229.964,256.000 229.822 C 256.000 229.453,261.809 215.990,263.603 212.200 C 264.437 210.440,266.217 206.696,267.559 203.880 C 268.902 201.064,270.000 198.675,270.000 198.572 C 270.000 198.469,270.450 197.671,271.000 196.800 C 272.564 194.322,272.379 193.752,269.900 193.429 C 264.774 192.761,259.569 191.027,253.305 187.901 C 251.493 186.996,249.940 186.334,249.854 186.428 C 249.389 186.940,248.000 190.058,248.000 190.589 C 248.000 190.931,247.830 191.523,247.623 191.905 C 247.415 192.287,246.234 194.657,244.998 197.172 C 239.551 208.256,224.064 230.800,221.898 230.800 C 221.314 230.800,222.488 208.017,223.402 201.600 C 223.812 198.726,224.800 182.528,224.800 178.690 C 224.800 174.745,224.791 174.709,223.900 174.979 C 219.745 176.237,212.892 175.328,205.917 172.595 C 205.414 172.398,205.179 172.575,205.027 173.264 " stroke="none" fill="#afd14c" fill-rule="evenodd"></path><path id="path2" d="M196.517 58.297 C 198.011 58.374,200.351 58.374,201.717 58.296 C 203.082 58.218,201.860 58.155,199.000 58.155 C 196.140 58.156,195.022 58.220,196.517 58.297 M188.000 59.200 C 187.208 59.454,187.167 59.520,187.800 59.520 C 188.240 59.520,189.050 59.376,189.600 59.200 C 190.392 58.946,190.433 58.880,189.800 58.880 C 189.360 58.880,188.550 59.024,188.000 59.200 M209.786 59.416 C 210.879 59.716,211.840 59.893,211.924 59.810 C 212.124 59.610,209.169 58.795,208.400 58.838 C 208.070 58.856,208.694 59.117,209.786 59.416 M216.000 61.400 C 216.550 61.714,217.180 61.972,217.400 61.972 C 217.620 61.972,217.350 61.714,216.800 61.400 C 216.250 61.086,215.620 60.828,215.400 60.828 C 215.180 60.828,215.450 61.086,216.000 61.400 M233.000 61.200 C 232.496 61.417,232.422 61.544,232.800 61.544 C 233.130 61.544,233.760 61.389,234.200 61.200 C 234.704 60.983,234.778 60.856,234.400 60.856 C 234.070 60.856,233.440 61.011,233.000 61.200 M247.633 60.947 C 247.725 61.028,248.520 61.204,249.400 61.338 C 250.515 61.507,250.758 61.471,250.200 61.219 C 249.432 60.871,247.290 60.644,247.633 60.947 M228.700 62.827 C 227.875 63.263,227.200 63.708,227.200 63.818 C 227.200 63.996,230.359 62.519,230.767 62.151 C 231.227 61.734,230.025 62.128,228.700 62.827 M158.700 62.689 C 159.415 62.778,160.585 62.778,161.300 62.689 C 162.015 62.601,161.430 62.528,160.000 62.528 C 158.570 62.528,157.985 62.601,158.700 62.689 M255.200 63.000 C 255.750 63.314,256.380 63.572,256.600 63.572 C 256.820 63.572,256.550 63.314,256.000 63.000 C 255.450 62.686,254.820 62.428,254.600 62.428 C 254.380 62.428,254.650 62.686,255.200 63.000 M164.200 63.200 C 165.892 63.631,167.344 63.631,166.000 63.200 C 165.450 63.024,164.550 62.883,164.000 62.887 C 163.102 62.894,163.122 62.926,164.200 63.200 M176.297 63.566 C 174.485 64.728,174.486 64.956,176.300 64.041 C 177.235 63.570,178.000 63.097,178.000 62.992 C 178.000 62.649,177.423 62.844,176.297 63.566 M170.800 65.200 C 172.542 66.153,173.347 66.187,174.051 65.336 C 174.552 64.729,174.523 64.719,173.720 65.219 C 172.961 65.692,172.643 65.673,171.407 65.084 C 169.476 64.163,169.054 64.244,170.800 65.200 M259.200 64.820 C 260.587 65.761,261.378 66.035,260.400 65.236 C 259.850 64.786,259.220 64.417,259.000 64.415 C 258.780 64.413,258.870 64.596,259.200 64.820 M145.400 65.414 C 144.400 65.896,144.366 65.951,145.200 65.748 C 146.333 65.471,147.607 64.821,147.000 64.830 C 146.780 64.833,146.060 65.096,145.400 65.414 M262.400 66.767 C 263.363 67.552,264.000 67.808,264.000 67.410 C 264.000 67.306,263.415 66.935,262.700 66.586 L 261.400 65.952 262.400 66.767 M141.500 67.029 C 139.949 67.870,140.125 68.161,141.700 67.359 C 143.208 66.593,143.475 66.394,142.967 66.416 C 142.765 66.425,142.105 66.701,141.500 67.029 M264.400 68.064 C 264.510 68.158,265.860 69.392,267.400 70.806 L 270.200 73.377 268.000 71.059 C 266.790 69.784,265.440 68.550,265.000 68.316 C 264.560 68.083,264.290 67.969,264.400 68.064 M135.360 70.741 C 134.502 71.369,133.440 72.299,133.000 72.809 C 132.560 73.318,133.280 72.870,134.600 71.815 C 137.506 69.490,137.380 69.600,137.127 69.600 C 137.013 69.600,136.218 70.114,135.360 70.741 M239.900 71.893 C 240.835 71.977,242.365 71.977,243.300 71.893 C 244.235 71.809,243.470 71.740,241.600 71.740 C 239.730 71.740,238.965 71.809,239.900 71.893 M248.800 72.814 C 250.230 73.231,251.580 73.560,251.800 73.545 C 252.498 73.498,247.836 72.049,247.000 72.053 C 246.560 72.055,247.370 72.398,248.800 72.814 M270.799 74.700 C 271.322 75.415,271.813 76.000,271.889 76.000 C 272.193 76.000,271.201 74.500,270.545 73.967 C 270.113 73.616,270.210 73.896,270.799 74.700 M129.574 76.100 C 128.610 77.255,128.139 77.947,128.526 77.638 C 129.304 77.018,131.768 74.000,131.496 74.000 C 131.402 74.000,130.537 74.945,129.574 76.100 M254.433 74.549 C 254.845 74.917,257.200 76.000,257.200 75.821 C 257.200 75.590,254.982 74.400,254.553 74.400 C 254.396 74.400,254.342 74.467,254.433 74.549 M257.600 76.136 C 257.600 76.235,258.476 76.878,259.546 77.565 C 261.769 78.992,265.400 82.689,266.750 84.900 C 267.872 86.739,268.321 86.896,267.323 85.100 C 265.957 82.642,257.600 74.938,257.600 76.136 M272.678 77.795 C 273.044 78.562,273.414 79.119,273.501 79.032 C 273.684 78.849,272.470 76.400,272.196 76.400 C 272.095 76.400,272.312 77.028,272.678 77.795 M234.002 77.064 C 233.999 77.730,236.336 79.605,237.131 79.575 C 237.556 79.559,237.435 79.409,236.800 79.165 C 236.250 78.953,235.396 78.290,234.902 77.690 C 234.408 77.091,234.003 76.809,234.002 77.064 M127.123 79.100 C 126.418 79.921,125.890 80.800,126.101 80.800 C 126.183 80.800,126.649 80.260,127.137 79.600 C 128.101 78.296,128.092 77.972,127.123 79.100 M274.576 80.978 C 275.004 81.320,275.634 81.586,275.976 81.568 C 276.515 81.541,276.518 81.507,276.000 81.314 C 275.670 81.192,275.040 80.926,274.600 80.724 C 273.813 80.362,273.812 80.366,274.576 80.978 M245.600 81.133 C 245.930 81.336,246.650 81.624,247.200 81.771 C 247.895 81.957,248.017 81.925,247.600 81.667 C 247.270 81.464,246.550 81.176,246.000 81.029 C 245.305 80.843,245.183 80.875,245.600 81.133 M125.014 82.235 C 124.641 82.804,124.405 83.338,124.489 83.422 C 124.573 83.507,124.958 83.041,125.344 82.388 C 126.206 80.928,125.948 80.809,125.014 82.235 M248.433 82.149 C 248.845 82.517,251.200 83.600,251.200 83.421 C 251.200 83.190,248.982 82.000,248.553 82.000 C 248.396 82.000,248.342 82.067,248.433 82.149 M278.833 82.549 C 279.245 82.917,281.600 84.000,281.600 83.821 C 281.600 83.590,279.382 82.400,278.953 82.400 C 278.796 82.400,278.742 82.467,278.833 82.549 M251.600 83.702 C 251.600 83.783,252.140 84.249,252.800 84.737 C 253.460 85.225,254.000 85.477,254.000 85.298 C 254.000 85.119,253.460 84.654,252.800 84.264 C 252.140 83.874,251.600 83.621,251.600 83.702 M282.200 84.274 C 283.074 85.129,287.664 88.427,287.411 88.019 C 287.263 87.779,286.210 86.900,285.071 86.065 C 282.852 84.440,281.520 83.608,282.200 84.274 M123.265 85.817 C 122.595 87.288,122.723 87.602,123.447 86.265 C 123.786 85.640,123.988 85.054,123.896 84.963 C 123.805 84.871,123.521 85.256,123.265 85.817 M255.983 87.300 C 256.964 88.345,257.819 89.200,257.883 89.200 C 258.184 89.200,257.866 88.841,256.100 87.183 L 254.200 85.400 255.983 87.300 M269.095 90.666 C 269.308 92.907,268.344 94.513,266.234 95.431 C 265.402 95.794,265.243 95.974,265.747 95.984 C 268.024 96.032,270.512 91.258,269.249 89.266 C 269.050 88.952,268.987 89.529,269.095 90.666 M288.680 89.401 C 289.151 89.731,290.486 91.036,291.645 92.301 C 292.805 93.565,293.504 94.240,293.200 93.800 C 292.240 92.413,288.645 88.800,288.225 88.800 C 288.003 88.800,288.208 89.070,288.680 89.401 M121.076 92.810 C 120.930 93.355,120.828 94.340,120.849 95.000 C 120.880 95.957,120.959 95.836,121.242 94.400 C 121.629 92.433,121.502 91.217,121.076 92.810 M261.196 93.594 C 261.890 94.471,262.667 95.318,262.923 95.476 C 263.178 95.634,262.693 94.916,261.845 93.881 C 260.997 92.847,260.220 92.000,260.118 92.000 C 260.016 92.000,260.501 92.718,261.196 93.594 M120.524 99.400 C 120.526 100.720,120.601 101.212,120.690 100.493 C 120.779 99.774,120.777 98.694,120.686 98.093 C 120.595 97.492,120.522 98.080,120.524 99.400 M296.428 99.800 C 296.428 100.020,296.686 100.650,297.000 101.200 C 297.314 101.750,297.572 102.020,297.572 101.800 C 297.572 101.580,297.314 100.950,297.000 100.400 C 296.686 99.850,296.428 99.580,296.428 99.800 M297.600 103.471 C 297.600 103.933,297.954 104.736,298.387 105.256 C 299.396 106.468,299.400 106.162,298.400 104.200 C 297.819 103.060,297.600 102.860,297.600 103.471 M120.400 105.539 C 120.400 105.726,119.671 106.207,118.781 106.609 C 117.890 107.010,117.062 107.500,116.940 107.697 C 116.819 107.893,117.637 107.589,118.760 107.020 C 120.450 106.164,121.425 105.200,120.600 105.200 C 120.490 105.200,120.400 105.353,120.400 105.539 M281.610 107.190 C 280.578 108.222,280.213 109.758,280.783 110.671 C 281.185 111.315,281.208 111.291,280.983 110.471 C 280.577 108.993,281.520 107.249,282.949 106.835 C 283.944 106.546,284.016 106.465,283.300 106.436 C 282.805 106.416,282.045 106.755,281.610 107.190 M286.400 108.277 C 286.400 108.496,286.760 109.002,287.200 109.400 C 287.640 109.798,288.000 110.034,288.000 109.923 C 288.000 109.813,287.640 109.307,287.200 108.800 C 286.760 108.293,286.400 108.057,286.400 108.277 M300.059 108.600 C 300.045 108.820,300.281 109.990,300.583 111.200 C 300.885 112.410,301.133 112.950,301.135 112.400 C 301.138 111.430,300.109 107.796,300.059 108.600 M111.768 111.300 C 109.647 113.154,109.283 113.516,107.200 115.836 C 106.430 116.694,107.510 115.784,109.600 113.813 C 111.690 111.843,113.571 110.089,113.780 109.915 C 113.989 109.742,114.059 109.600,113.936 109.600 C 113.813 109.600,112.838 110.365,111.768 111.300 M282.109 116.000 C 282.109 116.990,282.187 117.395,282.282 116.900 C 282.378 116.405,282.378 115.595,282.282 115.100 C 282.187 114.605,282.109 115.010,282.109 116.000 M301.309 116.400 C 301.309 117.390,301.387 117.795,301.482 117.300 C 301.578 116.805,301.578 115.995,301.482 115.500 C 301.387 115.005,301.309 115.410,301.309 116.400 M105.123 118.300 C 104.418 119.121,103.890 120.000,104.101 120.000 C 104.183 120.000,104.649 119.460,105.137 118.800 C 106.101 117.496,106.092 117.172,105.123 118.300 M300.495 122.240 C 300.229 123.508,300.079 124.612,300.161 124.694 C 300.390 124.923,301.294 120.883,301.126 120.379 C 301.045 120.135,300.761 120.973,300.495 122.240 M112.100 123.212 C 110.761 123.751,111.011 124.024,112.400 123.540 C 113.060 123.310,113.600 123.049,113.600 122.961 C 113.600 122.724,113.113 122.805,112.100 123.212 M286.800 123.994 C 285.302 125.156,283.746 125.379,282.484 124.612 L 281.400 123.953 282.344 124.776 C 283.679 125.940,286.229 125.452,287.631 123.763 C 288.270 122.993,287.990 123.070,286.800 123.994 M100.780 125.239 C 100.320 126.140,100.013 126.946,100.097 127.030 C 100.181 127.114,100.641 126.376,101.119 125.391 C 102.209 123.147,101.915 123.015,100.780 125.239 M109.751 124.900 C 108.570 126.248,107.880 127.200,108.084 127.200 C 108.184 127.200,108.845 126.480,109.552 125.600 C 110.925 123.892,111.064 123.401,109.751 124.900 M116.777 126.394 C 117.120 127.464,117.459 128.175,117.532 127.974 C 117.698 127.513,116.843 124.874,116.448 124.630 C 116.287 124.530,116.435 125.324,116.777 126.394 M98.846 129.639 C 98.601 130.343,98.413 131.118,98.428 131.360 C 98.444 131.602,98.714 131.096,99.030 130.235 C 99.345 129.374,99.533 128.600,99.448 128.515 C 99.362 128.429,99.092 128.935,98.846 129.639 M106.446 130.439 C 106.201 131.143,106.013 131.918,106.028 132.160 C 106.044 132.402,106.314 131.896,106.630 131.035 C 106.945 130.174,107.133 129.400,107.048 129.315 C 106.962 129.229,106.692 129.735,106.446 130.439 M117.293 132.400 C 117.293 133.170,117.375 133.485,117.476 133.100 C 117.576 132.715,117.576 132.085,117.476 131.700 C 117.375 131.315,117.293 131.630,117.293 132.400 M296.667 131.867 C 296.131 132.402,296.433 133.211,298.000 135.449 C 299.996 138.297,300.112 137.959,298.152 135.007 C 297.326 133.762,296.805 132.563,296.940 132.213 C 297.191 131.557,297.097 131.437,296.667 131.867 M97.000 136.400 C 96.846 137.310,96.804 138.138,96.907 138.240 C 97.010 138.343,97.213 137.677,97.360 136.760 C 97.507 135.843,97.548 135.015,97.453 134.920 C 97.358 134.824,97.154 135.490,97.000 136.400 M104.618 138.218 C 104.465 139.239,104.422 140.155,104.522 140.255 C 104.622 140.355,104.829 139.602,104.982 138.582 C 105.135 137.561,105.178 136.645,105.078 136.545 C 104.978 136.445,104.771 137.198,104.618 138.218 M96.514 141.000 C 96.517 142.100,96.595 142.503,96.687 141.895 C 96.779 141.286,96.777 140.386,96.682 139.895 C 96.587 139.403,96.511 139.900,96.514 141.000 M235.500 140.827 C 234.675 141.263,234.000 141.708,234.000 141.818 C 234.000 141.927,234.713 141.653,235.584 141.208 C 237.527 140.217,238.240 140.193,238.768 141.100 C 238.992 141.485,239.181 141.611,239.188 141.380 C 239.229 139.942,237.631 139.702,235.500 140.827 M228.000 144.800 C 227.230 145.222,226.780 145.566,227.000 145.566 C 227.220 145.566,228.030 145.222,228.800 144.800 C 229.570 144.378,230.020 144.034,229.800 144.034 C 229.580 144.034,228.770 144.378,228.000 144.800 M237.209 145.785 C 236.739 146.546,235.599 147.748,234.677 148.456 C 232.490 150.133,232.015 150.594,233.000 150.082 C 234.398 149.355,236.974 146.934,237.723 145.645 C 238.710 143.944,238.274 144.063,237.209 145.785 M103.748 148.800 C 103.748 151.110,103.814 152.055,103.895 150.900 C 103.976 149.745,103.976 147.855,103.895 146.700 C 103.814 145.545,103.748 146.490,103.748 148.800 M115.328 147.200 C 115.328 148.630,115.401 149.215,115.489 148.500 C 115.578 147.785,115.578 146.615,115.489 145.900 C 115.401 145.185,115.328 145.770,115.328 147.200 M96.524 148.200 C 96.526 149.520,96.601 150.012,96.690 149.293 C 96.779 148.574,96.777 147.494,96.686 146.893 C 96.595 146.292,96.522 146.880,96.524 148.200 M223.200 146.400 C 222.396 146.657,222.357 146.723,223.000 146.732 C 223.440 146.738,224.160 146.589,224.600 146.400 C 225.619 145.962,224.568 145.962,223.200 146.400 M302.893 149.200 C 302.893 149.970,302.975 150.285,303.076 149.900 C 303.176 149.515,303.176 148.885,303.076 148.500 C 302.975 148.115,302.893 148.430,302.893 149.200 M215.467 148.667 C 215.107 149.027,215.139 150.885,215.516 151.478 C 215.683 151.741,215.815 151.156,215.810 150.179 C 215.804 149.202,215.785 148.402,215.767 148.401 C 215.748 148.401,215.613 148.520,215.467 148.667 M303.342 154.600 C 303.341 156.580,303.408 157.440,303.492 156.512 C 303.576 155.584,303.577 153.964,303.495 152.912 C 303.412 151.860,303.343 152.620,303.342 154.600 M220.900 153.087 C 221.505 153.178,222.495 153.178,223.100 153.087 C 223.705 152.995,223.210 152.920,222.000 152.920 C 220.790 152.920,220.295 152.995,220.900 153.087 M195.222 154.321 C 197.868 155.989,198.000 156.063,198.000 155.865 C 198.000 155.605,194.198 153.200,193.787 153.200 C 193.598 153.200,194.244 153.705,195.222 154.321 M96.909 155.600 C 96.909 156.590,96.987 156.995,97.082 156.500 C 97.178 156.005,97.178 155.195,97.082 154.700 C 96.987 154.205,96.909 154.610,96.909 155.600 M104.087 154.800 C 104.083 155.350,104.224 156.250,104.400 156.800 C 104.831 158.144,104.831 156.692,104.400 155.000 C 104.126 153.922,104.094 153.902,104.087 154.800 M199.800 157.010 C 200.680 157.552,201.580 157.995,201.800 157.993 C 202.020 157.992,201.417 157.543,200.459 156.995 C 198.214 155.711,197.710 155.723,199.800 157.010 M192.846 157.667 C 192.821 158.034,192.696 158.664,192.570 159.067 C 192.352 159.762,192.363 159.763,192.797 159.087 C 193.048 158.696,193.173 158.066,193.073 157.687 C 192.911 157.068,192.888 157.066,192.846 157.667 M104.856 158.400 C 104.856 158.730,105.011 159.360,105.200 159.800 C 105.417 160.304,105.544 160.378,105.544 160.000 C 105.544 159.670,105.389 159.040,105.200 158.600 C 104.983 158.096,104.856 158.022,104.856 158.400 M202.400 158.189 C 202.400 158.506,205.300 159.633,205.528 159.405 C 205.641 159.292,205.635 159.200,205.516 159.200 C 205.396 159.200,204.646 158.928,203.849 158.595 C 203.052 158.262,202.400 158.079,202.400 158.189 M239.800 160.044 C 237.278 161.279,238.147 161.232,240.939 159.982 C 242.682 159.202,243.200 159.272,243.200 160.290 C 243.200 160.644,243.306 160.827,243.437 160.697 C 243.816 160.318,243.192 158.797,242.673 158.834 C 242.413 158.853,241.120 159.398,239.800 160.044 M302.650 160.450 C 302.317 162.117,302.640 162.440,303.000 160.800 C 303.152 160.109,303.193 159.459,303.091 159.358 C 302.989 159.256,302.791 159.747,302.650 160.450 M208.244 160.582 C 208.928 160.898,210.008 161.259,210.644 161.384 C 211.633 161.579,211.598 161.533,210.400 161.063 C 208.240 160.216,206.713 159.876,208.244 160.582 M120.313 163.000 C 121.214 164.329,123.532 166.639,123.696 166.371 C 123.753 166.277,122.832 165.210,121.650 164.000 C 120.467 162.790,119.865 162.340,120.313 163.000 M230.400 162.800 C 229.043 163.086,229.037 163.095,230.200 163.107 C 230.860 163.115,231.850 162.976,232.400 162.800 C 233.712 162.380,232.396 162.380,230.400 162.800 M98.419 163.092 C 98.395 163.707,99.650 166.884,99.840 166.693 C 99.918 166.616,99.633 165.663,99.209 164.576 C 98.785 163.489,98.429 162.821,98.419 163.092 M218.100 163.076 C 218.485 163.176,219.115 163.176,219.500 163.076 C 219.885 162.975,219.570 162.893,218.800 162.893 C 218.030 162.893,217.715 162.975,218.100 163.076 M222.912 163.495 C 223.964 163.577,225.584 163.576,226.512 163.492 C 227.440 163.408,226.580 163.341,224.600 163.342 C 222.620 163.343,221.860 163.412,222.912 163.495 M244.415 163.800 C 244.417 164.020,244.786 164.650,245.236 165.200 C 245.779 165.864,245.915 165.931,245.640 165.400 C 244.966 164.095,244.412 163.372,244.415 163.800 M187.594 166.513 C 186.161 167.881,183.911 169.580,182.594 170.289 C 181.277 170.998,180.392 171.583,180.627 171.589 C 181.759 171.618,186.673 168.145,188.981 165.685 C 191.275 163.241,190.603 163.643,187.594 166.513 M107.600 165.336 C 107.600 166.570,113.075 173.030,115.058 174.135 C 115.466 174.362,114.679 173.509,113.308 172.238 C 111.937 170.968,110.092 168.821,109.208 167.468 C 108.324 166.114,107.600 165.155,107.600 165.336 M246.388 167.093 C 247.368 169.116,255.646 176.023,257.054 175.992 C 257.244 175.988,256.500 175.425,255.400 174.741 C 254.300 174.057,252.411 172.665,251.202 171.649 C 249.248 170.005,248.329 169.068,246.478 166.831 C 246.035 166.296,246.022 166.336,246.388 167.093 M124.799 167.900 C 125.322 168.615,125.813 169.200,125.889 169.200 C 126.193 169.200,125.201 167.700,124.545 167.167 C 124.113 166.816,124.210 167.096,124.799 167.900 M100.000 167.349 C 100.000 167.781,101.589 170.800,101.816 170.800 C 101.926 170.800,101.630 170.035,101.159 169.100 C 100.232 167.261,100.000 166.911,100.000 167.349 M297.000 170.939 C 295.680 172.307,293.880 174.011,293.000 174.726 C 292.120 175.442,291.760 175.854,292.200 175.643 C 293.834 174.857,300.603 168.178,299.514 168.426 C 299.451 168.440,298.320 169.571,297.000 170.939 M162.671 171.500 C 162.394 171.970,161.882 174.624,162.111 174.400 C 162.374 174.144,163.183 171.200,162.991 171.200 C 162.912 171.200,162.768 171.335,162.671 171.500 M102.750 172.600 C 103.631 174.494,107.839 178.769,110.159 180.127 C 111.239 180.759,111.270 180.762,110.400 180.147 C 109.137 179.254,104.493 174.588,103.288 173.000 C 102.787 172.340,102.545 172.160,102.750 172.600 M204.198 175.223 C 204.041 176.996,204.006 178.539,204.119 178.653 C 204.233 178.766,204.454 177.494,204.611 175.824 C 204.961 172.090,204.730 172.210,208.889 173.607 C 214.772 175.584,220.249 176.076,223.964 174.962 L 224.928 174.673 224.672 181.837 C 224.531 185.776,224.332 190.620,224.230 192.600 C 224.059 195.900,224.071 195.983,224.383 193.600 C 224.882 189.778,225.759 174.425,225.493 174.159 C 225.367 174.034,223.968 174.247,222.383 174.632 C 218.798 175.503,214.848 175.078,209.341 173.229 C 204.282 171.530,204.533 171.433,204.198 175.223 M176.000 172.800 C 175.196 173.057,175.157 173.123,175.800 173.132 C 176.240 173.138,176.960 172.989,177.400 172.800 C 178.419 172.362,177.368 172.362,176.000 172.800 M171.107 173.490 C 171.826 173.579,172.906 173.577,173.507 173.486 C 174.108 173.395,173.520 173.322,172.200 173.324 C 170.880 173.326,170.388 173.401,171.107 173.490 M160.582 177.497 C 160.152 178.303,159.356 179.511,158.814 180.181 C 157.952 181.247,157.939 181.304,158.711 180.641 C 159.640 179.842,161.779 176.446,161.518 176.184 C 161.434 176.100,161.013 176.691,160.582 177.497 M288.000 177.800 C 287.010 178.330,286.342 178.772,286.516 178.782 C 286.941 178.806,290.000 177.234,290.000 176.992 C 290.000 176.727,290.017 176.720,288.000 177.800 M203.098 183.000 C 202.727 185.200,202.302 187.630,202.154 188.400 C 202.006 189.170,202.003 189.693,202.147 189.562 C 202.518 189.225,204.077 180.485,203.910 179.673 C 203.834 179.303,203.469 180.800,203.098 183.000 M270.600 180.427 C 271.783 180.701,280.577 180.866,279.800 180.599 C 279.580 180.524,277.150 180.392,274.400 180.305 C 271.650 180.219,269.940 180.274,270.600 180.427 M113.567 182.137 C 114.140 182.850,115.600 183.787,115.600 183.441 C 115.600 183.339,115.015 182.844,114.300 182.343 C 113.378 181.696,113.165 181.636,113.567 182.137 M155.659 183.394 C 154.810 184.161,153.065 185.421,151.781 186.194 C 150.497 186.968,149.634 187.600,149.862 187.600 C 150.797 187.600,158.372 182.064,157.501 182.016 C 157.337 182.007,156.508 182.628,155.659 183.394 M116.600 184.233 C 117.573 185.001,122.031 187.302,122.206 187.126 C 122.274 187.057,120.861 186.235,119.065 185.300 C 117.269 184.366,116.160 183.885,116.600 184.233 M248.793 186.618 C 247.930 188.888,248.003 189.796,248.900 187.955 L 249.800 186.111 253.200 187.833 C 259.267 190.907,265.235 192.893,270.042 193.437 C 271.339 193.583,272.400 193.763,272.400 193.835 C 272.400 193.907,270.711 197.439,268.646 201.683 C 263.371 212.528,256.000 228.940,256.000 229.840 C 256.000 229.972,255.741 230.646,255.423 231.340 C 254.601 233.138,252.984 237.194,251.332 241.600 C 250.549 243.690,249.775 245.580,249.613 245.800 C 249.305 246.218,249.220 246.464,245.997 256.289 C 242.929 265.643,243.666 264.472,247.187 254.400 C 248.918 249.450,250.900 243.960,251.593 242.200 C 252.286 240.440,253.184 238.100,253.587 237.000 C 254.296 235.068,256.087 230.702,259.085 223.600 C 261.187 218.619,267.094 205.827,270.219 199.488 C 273.365 193.106,273.472 193.471,268.200 192.599 C 263.947 191.895,257.046 189.400,252.611 186.962 C 249.644 185.331,249.295 185.299,248.793 186.618 M145.800 188.834 C 144.700 189.259,144.320 189.505,144.956 189.381 C 146.214 189.137,148.850 188.066,148.200 188.064 C 147.980 188.063,146.900 188.409,145.800 188.834 M167.389 190.431 C 166.295 191.553,163.780 193.802,161.800 195.428 C 155.893 200.282,156.118 200.083,157.009 199.657 C 158.593 198.898,162.653 195.666,166.116 192.407 C 168.049 190.587,169.709 189.176,169.804 189.271 C 170.031 189.497,176.926 203.378,180.264 210.328 C 181.709 213.338,184.228 218.860,185.862 222.600 C 189.923 231.897,189.654 231.414,190.281 230.557 C 190.845 229.786,194.778 217.956,196.784 211.000 C 197.482 208.580,198.248 206.150,198.486 205.600 C 198.724 205.050,198.985 204.033,199.066 203.340 C 199.148 202.647,199.491 201.207,199.829 200.140 C 200.573 197.794,202.003 191.235,201.954 190.400 C 201.913 189.714,201.606 190.794,200.476 195.600 C 198.030 206.007,191.102 228.658,190.042 229.718 C 189.746 230.014,188.000 226.930,188.000 226.111 C 188.000 225.403,174.416 196.752,170.705 189.632 C 169.927 188.140,169.530 188.236,167.389 190.431 M135.511 190.293 C 136.451 190.378,137.891 190.377,138.711 190.291 C 139.530 190.205,138.760 190.136,137.000 190.137 C 135.240 190.139,134.570 190.209,135.511 190.293 M247.113 191.423 C 245.346 195.806,242.118 202.081,239.411 206.400 C 234.990 213.451,227.874 223.446,224.044 227.985 L 222.200 230.169 221.973 226.985 L 221.747 223.800 221.673 227.300 C 221.633 229.225,221.758 230.800,221.951 230.800 C 223.139 230.800,235.171 214.526,240.287 206.000 C 243.696 200.319,248.160 191.081,247.890 190.269 C 247.812 190.036,247.462 190.555,247.113 191.423 M223.484 200.092 C 222.241 215.618,221.970 219.745,222.107 221.066 C 222.222 222.184,222.284 221.946,222.333 220.190 C 222.370 218.864,222.565 216.344,222.767 214.590 C 223.336 209.647,224.140 197.607,223.917 197.384 C 223.807 197.273,223.612 198.492,223.484 200.092 M154.100 200.796 C 152.584 201.720,152.540 201.999,153.570 204.174 C 158.820 215.268,163.393 232.121,165.570 248.400 C 166.810 257.668,167.085 273.400,166.220 285.600 C 166.048 288.025,166.061 288.079,166.419 286.400 C 167.074 283.323,167.364 262.353,166.834 256.372 C 165.709 243.685,164.604 237.042,161.948 227.000 C 160.201 220.392,156.258 208.724,154.448 204.800 C 153.329 202.375,153.388 201.761,154.800 201.136 C 155.460 200.844,156.000 200.469,156.000 200.302 C 156.000 199.816,155.488 199.949,154.100 200.796 M243.267 264.687 C 242.330 267.052,239.984 275.349,240.135 275.763 C 240.222 276.004,240.603 275.120,240.982 273.800 C 241.361 272.480,242.202 269.712,242.851 267.648 C 243.966 264.100,244.223 262.274,243.267 264.687 M238.843 279.530 C 238.351 281.353,238.019 283.057,238.105 283.316 C 238.192 283.575,238.665 282.294,239.157 280.470 C 239.649 278.647,239.981 276.943,239.895 276.684 C 239.808 276.425,239.335 277.706,238.843 279.530 M237.078 286.289 C 236.291 289.161,235.847 291.600,236.111 291.600 C 236.398 291.600,238.136 284.403,237.905 284.172 C 237.799 284.065,237.427 285.018,237.078 286.289 M165.045 293.032 C 164.179 298.858,162.288 307.962,161.113 311.969 L 160.243 314.937 162.221 316.696 C 180.339 332.801,196.968 341.318,211.412 341.892 C 218.011 342.153,227.223 340.934,228.534 339.625 C 228.889 339.271,230.130 325.782,229.876 325.039 C 229.794 324.797,229.497 327.030,229.217 330.000 C 228.279 339.933,228.463 339.289,226.397 339.887 C 212.006 344.055,196.549 340.730,180.333 329.978 C 176.880 327.688,169.418 322.159,168.358 321.103 C 168.051 320.798,167.507 320.380,167.148 320.174 C 166.790 319.968,165.235 318.671,163.692 317.292 L 160.888 314.784 161.848 311.092 C 163.779 303.665,166.292 289.877,165.919 288.758 C 165.829 288.486,165.435 290.409,165.045 293.032 M235.254 293.878 C 233.200 302.935,231.850 310.151,232.082 310.846 C 232.172 311.116,232.484 310.001,232.775 308.369 C 233.066 306.736,233.923 302.457,234.679 298.860 C 235.435 295.264,235.972 292.239,235.872 292.139 C 235.772 292.039,235.494 292.822,235.254 293.878 M231.445 313.071 C 230.808 316.191,229.960 322.509,230.072 323.301 C 230.143 323.795,230.601 321.511,231.092 318.225 C 231.582 314.939,231.914 312.181,231.830 312.097 C 231.745 312.012,231.572 312.451,231.445 313.071 " stroke="none" fill="#c5dea6" fill-rule="evenodd"></path><path id="path3" d="M193.500 58.682 C 193.995 58.778,194.805 58.778,195.300 58.682 C 195.795 58.587,195.390 58.509,194.400 58.509 C 193.410 58.509,193.005 58.587,193.500 58.682 M202.905 58.687 C 203.514 58.779,204.414 58.777,204.905 58.682 C 205.397 58.587,204.900 58.511,203.800 58.514 C 202.700 58.517,202.297 58.595,202.905 58.687 M183.675 60.673 C 182.726 61.009,182.021 61.354,182.107 61.440 C 182.193 61.527,183.240 61.251,184.432 60.828 C 185.624 60.405,186.330 60.060,186.000 60.061 C 185.670 60.062,184.624 60.338,183.675 60.673 M213.000 60.555 C 213.660 60.855,214.650 61.211,215.200 61.346 C 216.003 61.543,215.964 61.484,215.000 61.045 C 214.340 60.745,213.350 60.389,212.800 60.254 C 211.997 60.057,212.036 60.116,213.000 60.555 M241.800 60.418 C 244.547 60.846,246.831 60.812,244.400 60.380 C 243.410 60.203,241.970 60.070,241.200 60.083 C 240.055 60.103,240.165 60.164,241.800 60.418 M234.200 61.200 C 233.181 61.638,234.232 61.638,235.600 61.200 C 236.404 60.943,236.443 60.877,235.800 60.868 C 235.360 60.862,234.640 61.011,234.200 61.200 M251.200 62.130 C 252.160 62.666,255.200 63.320,255.200 62.990 C 255.200 62.903,254.435 62.633,253.500 62.392 C 250.208 61.541,250.131 61.532,251.200 62.130 M219.400 63.439 C 220.720 64.230,222.172 65.219,222.626 65.638 C 223.745 66.671,224.357 66.581,226.000 65.140 C 226.770 64.465,227.025 64.102,226.567 64.334 C 226.109 64.566,225.502 65.036,225.218 65.378 C 224.563 66.167,223.444 66.176,222.799 65.398 C 222.230 64.714,217.876 61.999,217.348 62.001 C 217.156 62.002,218.080 62.649,219.400 63.439 M157.700 63.094 C 158.745 63.176,160.455 63.176,161.500 63.094 C 162.545 63.012,161.690 62.944,159.600 62.944 C 157.510 62.944,156.655 63.012,157.700 63.094 M149.000 64.400 C 148.496 64.617,148.422 64.744,148.800 64.744 C 149.130 64.744,149.760 64.589,150.200 64.400 C 150.704 64.183,150.778 64.056,150.400 64.056 C 150.070 64.056,149.440 64.211,149.000 64.400 M140.932 67.740 C 139.134 68.684,136.974 69.973,136.132 70.605 C 133.351 72.689,130.377 75.311,130.572 75.506 C 130.678 75.611,131.357 75.103,132.082 74.377 C 134.216 72.238,137.886 69.695,141.359 67.949 C 144.758 66.239,145.167 65.993,144.567 66.012 C 144.365 66.018,142.729 66.796,140.932 67.740 M264.000 68.058 C 266.519 70.559,269.990 73.556,268.400 71.857 C 267.410 70.800,265.880 69.378,265.000 68.698 C 264.120 68.019,263.670 67.731,264.000 68.058 M250.800 73.000 C 252.626 73.703,253.345 73.693,251.800 72.986 C 251.140 72.683,250.330 72.442,250.000 72.448 C 249.670 72.455,250.030 72.703,250.800 73.000 M270.800 75.200 C 271.270 75.860,271.744 76.400,271.854 76.400 C 271.964 76.400,271.670 75.860,271.200 75.200 C 270.730 74.540,270.256 74.000,270.146 74.000 C 270.036 74.000,270.330 74.540,270.800 75.200 M272.019 76.891 C 271.968 77.689,274.245 81.600,274.760 81.600 C 275.260 81.600,275.253 81.522,274.715 81.100 C 274.364 80.825,273.618 79.700,273.057 78.600 C 272.496 77.500,272.029 76.731,272.019 76.891 M234.888 78.613 C 235.486 79.243,236.047 79.677,236.135 79.579 C 236.223 79.480,235.733 78.965,235.047 78.434 L 233.800 77.469 234.888 78.613 M263.400 80.400 C 264.706 81.720,265.865 82.800,265.975 82.800 C 266.085 82.800,265.106 81.720,263.800 80.400 C 262.494 79.080,261.335 78.000,261.225 78.000 C 261.115 78.000,262.094 79.080,263.400 80.400 M243.984 81.009 C 244.965 81.315,245.829 81.504,245.904 81.429 C 246.109 81.224,243.577 80.396,242.840 80.427 C 242.488 80.441,243.003 80.704,243.984 81.009 M278.000 82.600 C 278.550 82.914,279.180 83.172,279.400 83.172 C 279.620 83.172,279.350 82.914,278.800 82.600 C 278.250 82.286,277.620 82.028,277.400 82.028 C 277.180 82.028,277.450 82.286,278.000 82.600 M124.814 83.173 C 124.587 83.598,124.209 84.453,123.975 85.073 C 123.353 86.720,124.210 85.681,124.942 83.900 C 125.594 82.316,125.514 81.866,124.814 83.173 M280.200 83.490 C 280.420 83.700,281.320 84.276,282.200 84.770 C 283.080 85.265,283.440 85.370,283.000 85.004 C 282.106 84.261,279.572 82.891,280.200 83.490 M255.800 87.600 C 256.883 88.700,257.860 89.600,257.970 89.600 C 258.080 89.600,257.283 88.700,256.200 87.600 C 255.117 86.500,254.140 85.600,254.030 85.600 C 253.920 85.600,254.717 86.500,255.800 87.600 M285.800 87.327 C 286.680 88.120,287.549 88.777,287.731 88.785 C 287.913 88.793,287.553 88.391,286.931 87.891 C 284.813 86.187,284.195 85.879,285.800 87.327 M268.607 87.879 C 269.207 89.314,269.600 89.962,269.600 89.516 C 269.600 89.084,268.385 86.400,268.189 86.400 C 268.079 86.400,268.267 87.066,268.607 87.879 M122.229 89.429 C 122.081 90.015,122.038 90.572,122.132 90.666 C 122.227 90.760,122.424 90.358,122.571 89.771 C 122.719 89.185,122.762 88.628,122.668 88.534 C 122.573 88.440,122.376 88.842,122.229 89.429 M288.472 89.616 C 288.841 89.832,290.101 91.044,291.272 92.310 C 292.442 93.577,293.136 94.250,292.814 93.806 C 291.692 92.262,288.627 89.200,288.215 89.212 C 287.987 89.219,288.102 89.401,288.472 89.616 M262.088 95.013 C 262.686 95.643,263.247 96.077,263.335 95.979 C 263.423 95.880,262.933 95.365,262.247 94.834 L 261.000 93.869 262.088 95.013 M120.924 98.200 C 120.926 99.520,121.001 100.012,121.090 99.293 C 121.179 98.574,121.177 97.494,121.086 96.893 C 120.995 96.292,120.922 96.880,120.924 98.200 M295.000 97.600 C 295.341 98.260,295.711 98.800,295.821 98.800 C 295.931 98.800,295.741 98.260,295.400 97.600 C 295.059 96.940,294.689 96.400,294.579 96.400 C 294.469 96.400,294.659 96.940,295.000 97.600 M296.923 101.630 C 297.091 102.163,296.792 102.232,294.967 102.081 C 292.212 101.852,290.400 103.422,290.400 106.036 C 290.400 110.281,296.398 111.752,298.097 107.923 C 298.457 107.112,298.701 106.952,299.087 107.272 C 299.937 107.978,299.665 107.044,298.600 105.600 C 298.050 104.855,297.597 103.785,297.594 103.222 C 297.591 102.660,297.394 101.930,297.156 101.600 C 296.779 101.075,296.749 101.079,296.923 101.630 M120.514 103.400 C 120.517 104.500,120.595 104.903,120.687 104.295 C 120.779 103.686,120.777 102.786,120.682 102.295 C 120.587 101.803,120.511 102.300,120.514 103.400 M196.675 103.122 C 194.436 105.459,195.844 110.018,198.796 109.991 C 199.721 109.982,199.682 109.913,198.306 109.116 C 194.948 107.169,195.779 102.849,199.518 102.813 C 202.390 102.785,203.841 106.196,201.818 108.218 C 201.278 108.758,200.648 109.200,200.418 109.200 C 200.188 109.200,200.000 109.380,200.000 109.600 C 200.000 110.386,201.281 109.980,202.431 108.831 C 205.047 106.214,203.243 102.000,199.506 102.000 C 198.104 102.000,197.533 102.226,196.675 103.122 M297.025 104.102 C 298.609 105.985,297.628 108.677,295.116 109.337 C 294.070 109.612,291.846 108.238,291.423 107.055 C 290.189 103.604,294.634 101.261,297.025 104.102 M119.200 106.800 C 118.430 107.222,117.944 107.574,118.120 107.583 C 118.544 107.605,120.800 106.432,120.800 106.190 C 120.800 105.928,120.777 105.937,119.200 106.800 M280.955 107.412 C 280.590 107.969,280.406 108.539,280.546 108.679 C 280.686 108.819,280.800 108.723,280.800 108.467 C 280.800 108.210,281.160 107.640,281.600 107.200 C 282.040 106.760,282.224 106.400,282.009 106.400 C 281.794 106.400,281.320 106.856,280.955 107.412 M114.563 109.552 C 111.639 111.618,106.369 116.854,104.852 119.200 L 103.946 120.600 105.070 119.200 C 108.322 115.150,112.445 111.330,116.814 108.321 C 117.356 107.948,117.693 107.633,117.563 107.621 C 117.432 107.609,116.082 108.478,114.563 109.552 M287.960 109.800 C 288.634 111.105,289.188 111.828,289.185 111.400 C 289.183 111.180,288.814 110.550,288.364 110.000 C 287.821 109.336,287.685 109.269,287.960 109.800 M280.414 110.454 C 280.406 110.594,280.663 111.314,280.984 112.054 C 281.306 112.794,281.569 113.130,281.570 112.800 C 281.572 112.224,280.443 109.934,280.414 110.454 M300.942 116.600 C 300.941 118.580,301.008 119.440,301.092 118.512 C 301.176 117.584,301.177 115.964,301.095 114.912 C 301.012 113.860,300.943 114.620,300.942 116.600 M290.109 116.800 C 290.109 117.790,290.187 118.195,290.282 117.700 C 290.378 117.205,290.378 116.395,290.282 115.900 C 290.187 115.405,290.109 115.810,290.109 116.800 M281.246 118.839 C 280.292 121.577,281.223 125.600,282.811 125.600 C 283.005 125.600,282.722 125.158,282.182 124.618 C 281.115 123.551,280.954 122.144,281.587 119.411 C 282.043 117.447,281.846 117.118,281.246 118.839 M103.353 121.300 C 101.976 123.636,101.886 123.835,102.587 123.000 C 103.400 122.032,104.100 120.800,103.838 120.800 C 103.733 120.800,103.515 121.025,103.353 121.300 M289.003 121.590 C 288.855 122.057,288.092 123.081,287.308 123.866 C 286.418 124.755,286.207 125.117,286.747 124.829 C 287.708 124.314,289.843 121.310,289.495 120.962 C 289.373 120.840,289.152 121.122,289.003 121.590 M110.199 124.055 C 109.413 124.745,108.573 125.690,108.334 126.155 C 108.094 126.620,108.506 126.327,109.249 125.505 C 109.992 124.683,111.140 123.739,111.800 123.408 C 112.540 123.036,112.737 122.804,112.314 122.802 C 111.937 122.801,110.985 123.365,110.199 124.055 M114.800 123.501 C 115.601 123.901,116.499 124.799,116.899 125.600 C 117.343 126.487,117.599 126.729,117.599 126.260 C 117.600 125.853,116.988 124.908,116.240 124.160 C 115.492 123.412,114.547 122.800,114.140 122.801 C 113.671 122.801,113.913 123.057,114.800 123.501 M100.272 127.019 C 99.332 128.989,99.464 129.324,100.447 127.462 C 100.893 126.616,101.187 125.854,101.101 125.767 C 101.014 125.681,100.641 126.244,100.272 127.019 M298.867 126.780 C 298.633 127.451,298.527 128.000,298.631 128.000 C 298.901 128.000,299.656 125.922,299.457 125.724 C 299.367 125.633,299.101 126.108,298.867 126.780 M106.981 128.437 C 106.629 129.118,106.412 129.745,106.499 129.832 C 106.586 129.919,106.956 129.362,107.322 128.595 C 108.144 126.870,107.859 126.738,106.981 128.437 M297.000 130.800 C 296.659 131.460,296.469 132.000,296.579 132.000 C 296.689 132.000,297.059 131.460,297.400 130.800 C 297.741 130.140,297.931 129.600,297.821 129.600 C 297.711 129.600,297.341 130.140,297.000 130.800 M296.042 132.800 C 296.031 133.130,296.579 134.030,297.260 134.800 L 298.499 136.200 297.512 134.800 C 296.969 134.030,296.421 133.130,296.294 132.800 C 296.089 132.267,296.061 132.267,296.042 132.800 M299.281 138.191 C 299.759 139.176,300.219 139.914,300.303 139.830 C 300.484 139.649,298.868 136.400,298.597 136.400 C 298.494 136.400,298.802 137.206,299.281 138.191 M96.909 140.000 C 96.909 140.990,96.987 141.395,97.082 140.900 C 97.178 140.405,97.178 139.595,97.082 139.100 C 96.987 138.605,96.909 139.010,96.909 140.000 M238.705 140.491 C 238.935 140.771,239.206 141.450,239.307 142.000 C 239.467 142.871,239.498 142.837,239.546 141.743 C 239.582 140.910,239.378 140.401,238.943 140.234 C 238.447 140.043,238.389 140.106,238.705 140.491 M232.103 142.309 C 230.730 143.096,229.681 143.814,229.773 143.906 C 229.912 144.046,234.639 141.463,235.167 140.959 C 235.720 140.431,234.254 141.077,232.103 142.309 M96.509 144.400 C 96.509 145.390,96.587 145.795,96.682 145.300 C 96.778 144.805,96.778 143.995,96.682 143.500 C 96.587 143.005,96.509 143.410,96.509 144.400 M115.746 147.000 C 115.747 149.200,115.814 150.049,115.895 148.887 C 115.976 147.724,115.976 145.924,115.893 144.887 C 115.811 143.849,115.745 144.800,115.746 147.000 M238.106 144.867 C 237.500 145.974,237.421 146.315,237.853 145.956 C 238.457 145.455,239.349 143.615,239.106 143.372 C 239.041 143.308,238.592 143.981,238.106 144.867 M96.944 150.400 C 96.944 152.490,97.012 153.345,97.094 152.300 C 97.176 151.255,97.176 149.545,97.094 148.500 C 97.012 147.455,96.944 148.310,96.944 150.400 M216.031 147.836 C 214.842 148.836,214.317 150.854,215.116 151.348 C 215.290 151.456,215.366 150.968,215.283 150.264 C 215.092 148.625,216.216 147.550,218.514 147.175 L 220.200 146.900 218.731 146.850 C 217.684 146.814,216.908 147.098,216.031 147.836 M235.200 148.455 C 234.210 149.346,233.760 149.894,234.200 149.672 C 234.941 149.298,237.567 146.779,237.175 146.817 C 237.079 146.826,236.190 147.563,235.200 148.455 M103.314 149.000 C 103.317 150.100,103.395 150.503,103.487 149.895 C 103.579 149.286,103.577 148.386,103.482 147.895 C 103.387 147.403,103.311 147.900,103.314 149.000 M302.493 148.800 C 302.493 149.570,302.575 149.885,302.676 149.500 C 302.776 149.115,302.776 148.485,302.676 148.100 C 302.575 147.715,302.493 148.030,302.493 148.800 M231.600 150.800 C 230.830 151.222,230.344 151.574,230.520 151.583 C 230.944 151.605,233.200 150.432,233.200 150.190 C 233.200 149.928,233.177 149.937,231.600 150.800 M302.951 154.800 C 302.951 157.330,303.016 158.365,303.096 157.100 C 303.175 155.835,303.175 153.765,303.096 152.500 C 303.016 151.235,302.951 152.270,302.951 154.800 M225.200 152.800 C 223.833 153.088,223.828 153.095,225.000 153.119 C 225.660 153.133,226.560 152.989,227.000 152.800 C 227.962 152.387,227.164 152.387,225.200 152.800 M192.996 154.826 C 192.843 155.940,192.802 156.936,192.906 157.039 C 193.009 157.142,193.216 156.305,193.365 155.178 C 193.577 153.580,193.770 153.180,194.239 153.360 C 194.581 153.491,194.736 153.420,194.597 153.195 C 193.970 152.181,193.261 152.903,192.996 154.826 M116.629 155.200 C 116.776 155.750,117.064 156.470,117.267 156.800 C 117.525 157.217,117.557 157.095,117.371 156.400 C 117.224 155.850,116.936 155.130,116.733 154.800 C 116.475 154.383,116.443 154.505,116.629 155.200 M197.200 155.167 C 198.163 155.952,198.800 156.208,198.800 155.810 C 198.800 155.706,198.215 155.335,197.500 154.986 L 196.200 154.352 197.200 155.167 M241.100 159.024 C 239.507 159.895,239.748 160.107,241.424 159.308 C 242.664 158.717,242.900 158.705,243.254 159.215 C 243.608 159.724,243.640 159.722,243.497 159.200 C 243.272 158.373,242.405 158.309,241.100 159.024 M118.847 160.399 C 119.342 161.278,120.208 162.403,120.773 162.899 L 121.800 163.800 120.965 162.800 C 120.505 162.250,119.726 161.125,119.232 160.300 C 118.031 158.292,117.710 158.375,118.847 160.399 M211.000 161.200 C 211.440 161.389,212.070 161.544,212.400 161.544 C 212.778 161.544,212.704 161.417,212.200 161.200 C 211.760 161.011,211.130 160.856,210.800 160.856 C 210.422 160.856,210.496 160.983,211.000 161.200 M190.622 162.512 C 190.218 163.221,189.417 164.337,188.843 164.994 C 187.896 166.078,187.888 166.114,188.752 165.394 C 189.756 164.556,191.763 161.630,191.508 161.375 C 191.425 161.292,191.027 161.804,190.622 162.512 M244.000 161.746 C 244.000 162.222,245.148 164.800,245.359 164.800 C 245.469 164.800,245.279 164.125,244.938 163.300 C 244.296 161.751,244.000 161.261,244.000 161.746 M222.316 163.097 C 223.699 163.175,225.859 163.174,227.116 163.095 C 228.372 163.016,227.240 162.952,224.600 162.953 C 221.960 162.953,220.932 163.018,222.316 163.097 M122.368 164.944 C 122.901 165.523,123.414 165.920,123.508 165.825 C 123.795 165.538,123.206 164.831,122.278 164.348 C 121.441 163.913,121.445 163.940,122.368 164.944 M247.859 168.502 C 248.484 169.218,249.627 170.331,250.398 170.976 C 251.169 171.620,250.726 171.034,249.413 169.674 C 246.846 167.014,246.006 166.381,247.859 168.502 M299.006 168.288 L 298.304 169.400 299.230 168.511 C 299.739 168.022,300.055 167.522,299.932 167.399 C 299.809 167.276,299.392 167.676,299.006 168.288 M126.309 171.195 C 126.471 172.880,126.345 173.491,125.625 174.529 L 124.742 175.800 125.771 174.678 C 126.833 173.520,127.195 170.843,126.449 169.666 C 126.252 169.356,126.194 169.995,126.309 171.195 M295.600 172.082 C 294.170 173.426,293.720 173.975,294.600 173.300 C 296.127 172.130,298.743 169.579,298.375 169.619 C 298.279 169.629,297.030 170.738,295.600 172.082 M162.626 171.157 C 162.521 171.327,162.652 171.468,162.918 171.470 C 163.183 171.473,163.805 171.605,164.300 171.764 C 165.650 172.199,165.385 171.743,164.009 171.263 C 163.354 171.035,162.732 170.987,162.626 171.157 M179.600 171.400 C 179.050 171.714,178.780 171.972,179.000 171.972 C 179.220 171.972,179.850 171.714,180.400 171.400 C 180.950 171.086,181.220 170.828,181.000 170.828 C 180.780 170.828,180.150 171.086,179.600 171.400 M112.413 172.300 C 112.419 172.465,112.914 172.946,113.513 173.368 L 114.600 174.136 113.630 173.068 C 112.611 171.946,112.392 171.807,112.413 172.300 M170.711 173.093 C 171.651 173.178,173.091 173.177,173.911 173.091 C 174.730 173.005,173.960 172.936,172.200 172.937 C 170.440 172.939,169.770 173.009,170.711 173.093 M104.014 173.800 C 104.933 175.160,108.137 178.421,109.400 179.281 C 110.060 179.731,109.753 179.349,108.717 178.433 C 107.681 177.516,106.078 175.919,105.153 174.883 C 104.229 173.847,103.717 173.360,104.014 173.800 M114.800 174.196 C 114.800 174.470,117.249 175.684,117.432 175.501 C 117.519 175.414,116.962 175.044,116.195 174.678 C 115.428 174.312,114.800 174.095,114.800 174.196 M160.678 176.605 C 160.312 177.372,160.095 178.000,160.196 178.000 C 160.470 178.000,161.684 175.551,161.501 175.368 C 161.414 175.281,161.044 175.838,160.678 176.605 M120.105 176.287 C 120.714 176.379,121.614 176.377,122.105 176.282 C 122.597 176.187,122.100 176.111,121.000 176.114 C 119.900 176.117,119.497 176.195,120.105 176.287 M289.500 176.629 C 288.005 177.440,288.096 177.778,289.600 177.000 C 290.260 176.659,290.800 176.294,290.800 176.190 C 290.800 175.932,290.757 175.947,289.500 176.629 M158.743 179.700 C 158.096 180.622,158.036 180.835,158.537 180.433 C 159.250 179.860,160.187 178.400,159.841 178.400 C 159.739 178.400,159.244 178.985,158.743 179.700 M265.400 179.011 C 266.280 179.301,267.360 179.536,267.800 179.533 C 268.240 179.531,267.700 179.278,266.600 178.972 C 264.097 178.276,263.252 178.303,265.400 179.011 M110.800 180.137 C 110.800 180.240,111.745 180.879,112.900 181.559 C 114.055 182.238,115.450 183.091,116.000 183.456 C 116.701 183.920,116.641 183.808,115.800 183.081 C 114.574 182.021,110.800 179.799,110.800 180.137 M272.300 180.282 C 272.795 180.378,273.605 180.378,274.100 180.282 C 274.595 180.187,274.190 180.109,273.200 180.109 C 272.210 180.109,271.805 180.187,272.300 180.282 M278.500 180.276 C 278.885 180.376,279.515 180.376,279.900 180.276 C 280.285 180.175,279.970 180.093,279.200 180.093 C 278.430 180.093,278.115 180.175,278.500 180.276 M154.972 183.512 C 154.296 184.110,153.216 185.013,152.572 185.518 C 151.927 186.022,152.210 185.908,153.200 185.264 C 154.760 184.249,156.835 182.377,156.362 182.412 C 156.273 182.418,155.647 182.913,154.972 183.512 M117.200 184.184 C 117.200 184.294,117.920 184.751,118.800 185.200 C 119.680 185.649,120.400 185.926,120.400 185.816 C 120.400 185.706,119.680 185.249,118.800 184.800 C 117.920 184.351,117.200 184.074,117.200 184.184 M122.400 186.966 C 122.950 187.260,123.850 187.612,124.400 187.749 C 124.950 187.886,124.680 187.652,123.800 187.229 C 121.990 186.358,120.868 186.148,122.400 186.966 M129.200 189.200 C 129.750 189.376,130.560 189.520,131.000 189.520 C 131.633 189.520,131.592 189.454,130.800 189.200 C 130.250 189.024,129.440 188.880,129.000 188.880 C 128.367 188.880,128.408 188.946,129.200 189.200 M143.200 189.200 C 142.396 189.457,142.357 189.523,143.000 189.532 C 143.440 189.538,144.160 189.389,144.600 189.200 C 145.619 188.762,144.568 188.762,143.200 189.200 M133.105 189.883 C 133.602 189.979,134.322 189.975,134.705 189.875 C 135.087 189.775,134.680 189.696,133.800 189.701 C 132.920 189.705,132.607 189.787,133.105 189.883 M139.700 189.876 C 140.085 189.976,140.715 189.976,141.100 189.876 C 141.485 189.775,141.170 189.693,140.400 189.693 C 139.630 189.693,139.315 189.775,139.700 189.876 " stroke="none" fill="#94ba8e" fill-rule="evenodd"></path></g></svg>